M48
; DRILL file {KiCad (5.1.12-1-10_14)} date Wednesday, January 26, 2022 at 05:57:39 PM
; FORMAT={-:-/ absolute / inch / decimal}
; #@! TF.CreationDate,2022-01-26T17:57:39+01:00
; #@! TF.GenerationSoftware,Kicad,Pcbnew,(5.1.12-1-10_14)
FMAT,2
INCH
T1C0.0157
T2C0.0197
T3C0.0217
T4C0.0335
T5C0.1260
T6C0.0315
%
G90
G05
T1
X5.4875Y-4.2125
X5.4925Y-3.325
X5.635Y-3.3275
X5.6575Y-4.6525
X5.7375Y-4.035
X5.7625Y-3.545
X5.7634Y-4.6884
X5.7775Y-4.86
X5.8052Y-4.4085
X5.8375Y-3.645
X5.875Y-4.7775
X5.89Y-4.44
X5.9075Y-3.6075
X5.9325Y-4.8075
X6.025Y-4.105
X6.1175Y-3.545
X6.1175Y-4.8075
X6.16Y-4.44
X6.17Y-4.7775
X6.1925Y-3.93
X6.2475Y-3.9575
X6.32Y-4.035
X6.375Y-4.6425
X6.4125Y-3.3275
X6.4677Y-4.6927
X6.475Y-3.485
X6.475Y-3.6175
X6.51Y-3.9525
T2
X5.4885Y-4.945
X5.5162Y-4.8782
X5.5162Y-5.0118
X5.583Y-4.8505
X5.583Y-5.0395
X5.6498Y-4.8782
X5.6498Y-5.0118
X5.6775Y-4.945
X6.3505Y-4.945
X6.3782Y-4.8782
X6.3782Y-5.0118
X6.445Y-4.8505
X6.445Y-5.0395
X6.5118Y-4.8782
X6.5118Y-5.0118
X6.5395Y-4.945
T5
X5.583Y-4.945
X6.445Y-4.945
T6
X5.9266Y-4.901
X6.1234Y-4.901
T3
G00X5.8724Y-5.0221
M15
G01X5.8724Y-4.9965
M16
G05
G00X6.1776Y-5.0221
M15
G01X6.1776Y-4.9965
M16
G05
T4
G00X5.8783Y-4.8705
M15
G01X5.8783Y-4.8488
M16
G05
G00X6.1717Y-4.8705
M15
G01X6.1717Y-4.8488
M16
G05
T0
M30
