%TF.GenerationSoftware,KiCad,Pcbnew,(5.1.12-1-10_14)*%
%TF.CreationDate,2022-01-26T17:57:44+01:00*%
%TF.ProjectId,tiny-led-esp32,74696e79-2d6c-4656-942d-65737033322e,rev?*%
%TF.SameCoordinates,Original*%
%TF.FileFunction,Soldermask,Bot*%
%TF.FilePolarity,Negative*%
%FSLAX46Y46*%
G04 Gerber Fmt 4.6, Leading zero omitted, Abs format (unit mm)*
G04 Created by KiCad (PCBNEW (5.1.12-1-10_14)) date 2022-01-26 17:57:44*
%MOMM*%
%LPD*%
G01*
G04 APERTURE LIST*
%ADD10R,2.000000X0.900000*%
%ADD11R,0.900000X2.000000*%
%ADD12R,5.000000X5.000000*%
%ADD13C,2.500000*%
%ADD14C,0.800000*%
%ADD15C,6.400000*%
%ADD16R,1.500000X2.000000*%
%ADD17R,3.800000X2.000000*%
%ADD18O,0.800000X0.800000*%
%ADD19O,1.150000X1.800000*%
%ADD20O,1.450000X2.000000*%
%ADD21R,0.450000X1.300000*%
G04 APERTURE END LIST*
D10*
%TO.C,U2*%
X144500000Y-84518500D03*
X144500000Y-85788500D03*
X144500000Y-87058500D03*
X144500000Y-88328500D03*
X144500000Y-89598500D03*
X144500000Y-90868500D03*
X144500000Y-92138500D03*
X144500000Y-93408500D03*
X144500000Y-94678500D03*
X144500000Y-95948500D03*
X144500000Y-97218500D03*
X144500000Y-98488500D03*
X144500000Y-99758500D03*
X144500000Y-101028500D03*
D11*
X147285000Y-102028500D03*
X148555000Y-102028500D03*
X149825000Y-102028500D03*
X151095000Y-102028500D03*
X152365000Y-102028500D03*
X153635000Y-102028500D03*
X154905000Y-102028500D03*
X156175000Y-102028500D03*
X157445000Y-102028500D03*
X158715000Y-102028500D03*
D10*
X161500000Y-101028500D03*
X161500000Y-99758500D03*
X161500000Y-98488500D03*
X161500000Y-97218500D03*
X161500000Y-95948500D03*
X161500000Y-94678500D03*
X161500000Y-93408500D03*
X161500000Y-92138500D03*
X161500000Y-90868500D03*
X161500000Y-89598500D03*
X161500000Y-88328500D03*
X161500000Y-87058500D03*
X161500000Y-85788500D03*
X161500000Y-84518500D03*
D12*
X154000000Y-92018500D03*
%TD*%
D13*
%TO.C,TP7*%
X141000000Y-91000000D03*
%TD*%
%TO.C,TP2*%
X164500000Y-99000000D03*
%TD*%
%TO.C,TP1*%
X164500000Y-95000000D03*
%TD*%
%TO.C,TP4*%
X141000000Y-95000000D03*
%TD*%
%TO.C,TP3*%
X141000000Y-99000000D03*
%TD*%
%TO.C,TP5*%
X141000000Y-103000000D03*
%TD*%
%TO.C,TP6*%
X141000000Y-107000000D03*
%TD*%
D14*
%TO.C,H2*%
X165400056Y-123905944D03*
X163703000Y-123203000D03*
X162005944Y-123905944D03*
X161303000Y-125603000D03*
X162005944Y-127300056D03*
X163703000Y-128003000D03*
X165400056Y-127300056D03*
X166103000Y-125603000D03*
D15*
X163703000Y-125603000D03*
%TD*%
D14*
%TO.C,H1*%
X143505256Y-123905944D03*
X141808200Y-123203000D03*
X140111144Y-123905944D03*
X139408200Y-125603000D03*
X140111144Y-127300056D03*
X141808200Y-128003000D03*
X143505256Y-127300056D03*
X144208200Y-125603000D03*
D15*
X141808200Y-125603000D03*
%TD*%
%TO.C,R3*%
G36*
G01*
X165090001Y-85100000D02*
X163839999Y-85100000D01*
G75*
G02*
X163590000Y-84850001I0J249999D01*
G01*
X163590000Y-84224999D01*
G75*
G02*
X163839999Y-83975000I249999J0D01*
G01*
X165090001Y-83975000D01*
G75*
G02*
X165340000Y-84224999I0J-249999D01*
G01*
X165340000Y-84850001D01*
G75*
G02*
X165090001Y-85100000I-249999J0D01*
G01*
G37*
G36*
G01*
X165090001Y-88025000D02*
X163839999Y-88025000D01*
G75*
G02*
X163590000Y-87775001I0J249999D01*
G01*
X163590000Y-87149999D01*
G75*
G02*
X163839999Y-86900000I249999J0D01*
G01*
X165090001Y-86900000D01*
G75*
G02*
X165340000Y-87149999I0J-249999D01*
G01*
X165340000Y-87775001D01*
G75*
G02*
X165090001Y-88025000I-249999J0D01*
G01*
G37*
%TD*%
%TO.C,R2*%
G36*
G01*
X140471999Y-86900000D02*
X141722001Y-86900000D01*
G75*
G02*
X141972000Y-87149999I0J-249999D01*
G01*
X141972000Y-87775001D01*
G75*
G02*
X141722001Y-88025000I-249999J0D01*
G01*
X140471999Y-88025000D01*
G75*
G02*
X140222000Y-87775001I0J249999D01*
G01*
X140222000Y-87149999D01*
G75*
G02*
X140471999Y-86900000I249999J0D01*
G01*
G37*
G36*
G01*
X140471999Y-83975000D02*
X141722001Y-83975000D01*
G75*
G02*
X141972000Y-84224999I0J-249999D01*
G01*
X141972000Y-84850001D01*
G75*
G02*
X141722001Y-85100000I-249999J0D01*
G01*
X140471999Y-85100000D01*
G75*
G02*
X140222000Y-84850001I0J249999D01*
G01*
X140222000Y-84224999D01*
G75*
G02*
X140471999Y-83975000I249999J0D01*
G01*
G37*
%TD*%
%TO.C,C14*%
G36*
G01*
X153949500Y-116410501D02*
X153949500Y-115110499D01*
G75*
G02*
X154199499Y-114860500I249999J0D01*
G01*
X154849501Y-114860500D01*
G75*
G02*
X155099500Y-115110499I0J-249999D01*
G01*
X155099500Y-116410501D01*
G75*
G02*
X154849501Y-116660500I-249999J0D01*
G01*
X154199499Y-116660500D01*
G75*
G02*
X153949500Y-116410501I0J249999D01*
G01*
G37*
G36*
G01*
X150999500Y-116410501D02*
X150999500Y-115110499D01*
G75*
G02*
X151249499Y-114860500I249999J0D01*
G01*
X151899501Y-114860500D01*
G75*
G02*
X152149500Y-115110499I0J-249999D01*
G01*
X152149500Y-116410501D01*
G75*
G02*
X151899501Y-116660500I-249999J0D01*
G01*
X151249499Y-116660500D01*
G75*
G02*
X150999500Y-116410501I0J249999D01*
G01*
G37*
%TD*%
%TO.C,C1*%
G36*
G01*
X163814999Y-92164000D02*
X165115001Y-92164000D01*
G75*
G02*
X165365000Y-92413999I0J-249999D01*
G01*
X165365000Y-93064001D01*
G75*
G02*
X165115001Y-93314000I-249999J0D01*
G01*
X163814999Y-93314000D01*
G75*
G02*
X163565000Y-93064001I0J249999D01*
G01*
X163565000Y-92413999D01*
G75*
G02*
X163814999Y-92164000I249999J0D01*
G01*
G37*
G36*
G01*
X163814999Y-89214000D02*
X165115001Y-89214000D01*
G75*
G02*
X165365000Y-89463999I0J-249999D01*
G01*
X165365000Y-90114001D01*
G75*
G02*
X165115001Y-90364000I-249999J0D01*
G01*
X163814999Y-90364000D01*
G75*
G02*
X163565000Y-90114001I0J249999D01*
G01*
X163565000Y-89463999D01*
G75*
G02*
X163814999Y-89214000I249999J0D01*
G01*
G37*
%TD*%
D16*
%TO.C,U1*%
X155335000Y-112853000D03*
X150735000Y-112853000D03*
X153035000Y-112853000D03*
D17*
X153035000Y-106553000D03*
%TD*%
D18*
%TO.C,J1*%
X150535000Y-124485500D03*
X155535000Y-124485500D03*
D19*
X149160000Y-127235500D03*
X156910000Y-127235500D03*
D20*
X149310000Y-123435500D03*
X156760000Y-123435500D03*
D21*
X151735000Y-123385500D03*
X152385000Y-123385500D03*
X153035000Y-123385500D03*
X153685000Y-123385500D03*
X154335000Y-123385500D03*
%TD*%
M02*
