%TF.GenerationSoftware,KiCad,Pcbnew,(5.1.12-1-10_14)*%
%TF.CreationDate,2022-01-26T17:57:44+01:00*%
%TF.ProjectId,tiny-led-esp32,74696e79-2d6c-4656-942d-65737033322e,rev?*%
%TF.SameCoordinates,Original*%
%TF.FileFunction,Copper,L3,Inr*%
%TF.FilePolarity,Positive*%
%FSLAX46Y46*%
G04 Gerber Fmt 4.6, Leading zero omitted, Abs format (unit mm)*
G04 Created by KiCad (PCBNEW (5.1.12-1-10_14)) date 2022-01-26 17:57:44*
%MOMM*%
%LPD*%
G01*
G04 APERTURE LIST*
%TA.AperFunction,ComponentPad*%
%ADD10C,0.800000*%
%TD*%
%TA.AperFunction,ComponentPad*%
%ADD11C,6.400000*%
%TD*%
%TA.AperFunction,ComponentPad*%
%ADD12O,1.150000X1.800000*%
%TD*%
%TA.AperFunction,ComponentPad*%
%ADD13O,1.450000X2.000000*%
%TD*%
%TA.AperFunction,ViaPad*%
%ADD14C,0.800000*%
%TD*%
%TA.AperFunction,Conductor*%
%ADD15C,0.254000*%
%TD*%
%TA.AperFunction,Conductor*%
%ADD16C,0.100000*%
%TD*%
G04 APERTURE END LIST*
D10*
%TO.N,+5V*%
%TO.C,H2*%
X165400056Y-123905944D03*
X163703000Y-123203000D03*
X162005944Y-123905944D03*
X161303000Y-125603000D03*
X162005944Y-127300056D03*
X163703000Y-128003000D03*
X165400056Y-127300056D03*
X166103000Y-125603000D03*
D11*
X163703000Y-125603000D03*
%TD*%
D10*
%TO.N,GND*%
%TO.C,H1*%
X143505256Y-123905944D03*
X141808200Y-123203000D03*
X140111144Y-123905944D03*
X139408200Y-125603000D03*
X140111144Y-127300056D03*
X141808200Y-128003000D03*
X143505256Y-127300056D03*
X144208200Y-125603000D03*
D11*
X141808200Y-125603000D03*
%TD*%
D12*
%TO.N,Net-(J1-Pad6)*%
%TO.C,J1*%
X149160000Y-127235500D03*
X156910000Y-127235500D03*
D13*
X149310000Y-123435500D03*
X156760000Y-123435500D03*
%TD*%
D14*
%TO.N,+5V*%
X160528000Y-102489000D03*
X149606000Y-112776000D03*
X150050500Y-91630500D03*
X155384500Y-122110500D03*
X149225000Y-121348500D03*
X145732500Y-102489000D03*
X146390000Y-119085000D03*
X164280000Y-119195000D03*
%TO.N,Net-(D1-Pad4)*%
X139509500Y-84455000D03*
%TO.N,GND*%
X156464000Y-112776000D03*
X146748500Y-123444000D03*
X148272500Y-92583000D03*
X146367500Y-90043000D03*
X155384500Y-90043000D03*
X139382500Y-106997500D03*
X150685500Y-122110500D03*
X156718000Y-121348500D03*
X143700500Y-118173500D03*
X161925000Y-117919500D03*
X158686500Y-100520500D03*
X143129000Y-84518500D03*
X162877500Y-84518500D03*
X164465000Y-88519000D03*
X164465000Y-91884500D03*
X165354000Y-100393500D03*
X147450999Y-111975999D03*
%TO.N,+3V3*%
X153035000Y-104267000D03*
X157289500Y-99822000D03*
%TD*%
D15*
%TO.N,+5V*%
X166345000Y-83182068D02*
X166345000Y-100081401D01*
X166271205Y-99903244D01*
X166157937Y-99733726D01*
X166013774Y-99589563D01*
X165844256Y-99476295D01*
X165655898Y-99398274D01*
X165455939Y-99358500D01*
X165252061Y-99358500D01*
X165052102Y-99398274D01*
X164863744Y-99476295D01*
X164694226Y-99589563D01*
X164550063Y-99733726D01*
X164436795Y-99903244D01*
X164358774Y-100091602D01*
X164319000Y-100291561D01*
X164319000Y-100495439D01*
X164358774Y-100695398D01*
X164436795Y-100883756D01*
X164550063Y-101053274D01*
X164694226Y-101197437D01*
X164863744Y-101310705D01*
X165052102Y-101388726D01*
X165252061Y-101428500D01*
X165455939Y-101428500D01*
X165655898Y-101388726D01*
X165844256Y-101310705D01*
X166013774Y-101197437D01*
X166157937Y-101053274D01*
X166271205Y-100883756D01*
X166345000Y-100705599D01*
X166345001Y-122796119D01*
X166337637Y-122788755D01*
X166224275Y-122902117D01*
X165864088Y-122412452D01*
X165200118Y-122052151D01*
X164478615Y-121828306D01*
X163727305Y-121749520D01*
X162975062Y-121818822D01*
X162250792Y-122033548D01*
X161582330Y-122385445D01*
X161541912Y-122412452D01*
X161181724Y-122902119D01*
X163703000Y-125423395D01*
X163717143Y-125409253D01*
X163896748Y-125588858D01*
X163882605Y-125603000D01*
X163896748Y-125617143D01*
X163717143Y-125796748D01*
X163703000Y-125782605D01*
X163688858Y-125796748D01*
X163509253Y-125617143D01*
X163523395Y-125603000D01*
X161002119Y-123081724D01*
X160512452Y-123441912D01*
X160152151Y-124105882D01*
X159928306Y-124827385D01*
X159849520Y-125578695D01*
X159918822Y-126330938D01*
X160133548Y-127055208D01*
X160485445Y-127723670D01*
X160512452Y-127764088D01*
X161002117Y-128124275D01*
X160888755Y-128237637D01*
X160896118Y-128245000D01*
X157913553Y-128245000D01*
X157920946Y-128235992D01*
X158033303Y-128025787D01*
X158102492Y-127797701D01*
X158120000Y-127619937D01*
X158120000Y-126851064D01*
X158102492Y-126673300D01*
X158033303Y-126445213D01*
X157920946Y-126235008D01*
X157769739Y-126050761D01*
X157585492Y-125899554D01*
X157375287Y-125787197D01*
X157147201Y-125718008D01*
X156910000Y-125694646D01*
X156672800Y-125718008D01*
X156444714Y-125787197D01*
X156234509Y-125899554D01*
X156050262Y-126050761D01*
X155899055Y-126235008D01*
X155786697Y-126445213D01*
X155717508Y-126673299D01*
X155700000Y-126851063D01*
X155700000Y-127619936D01*
X155717508Y-127797700D01*
X155786697Y-128025786D01*
X155899054Y-128235991D01*
X155906447Y-128245000D01*
X150163553Y-128245000D01*
X150170946Y-128235992D01*
X150283303Y-128025787D01*
X150352492Y-127797701D01*
X150370000Y-127619937D01*
X150370000Y-126851064D01*
X150352492Y-126673300D01*
X150283303Y-126445213D01*
X150170946Y-126235008D01*
X150019739Y-126050761D01*
X149835492Y-125899554D01*
X149625287Y-125787197D01*
X149397201Y-125718008D01*
X149160000Y-125694646D01*
X148922800Y-125718008D01*
X148694714Y-125787197D01*
X148484509Y-125899554D01*
X148300262Y-126050761D01*
X148149055Y-126235008D01*
X148036697Y-126445213D01*
X147967508Y-126673299D01*
X147950000Y-126851063D01*
X147950000Y-127619936D01*
X147967508Y-127797700D01*
X148036697Y-128025786D01*
X148149054Y-128235991D01*
X148156447Y-128245000D01*
X144589709Y-128245000D01*
X144787039Y-128047670D01*
X145206733Y-127419554D01*
X145495823Y-126721628D01*
X145643200Y-125980715D01*
X145643200Y-125225285D01*
X145495823Y-124484372D01*
X145206733Y-123786446D01*
X144909805Y-123342061D01*
X145713500Y-123342061D01*
X145713500Y-123545939D01*
X145753274Y-123745898D01*
X145831295Y-123934256D01*
X145944563Y-124103774D01*
X146088726Y-124247937D01*
X146258244Y-124361205D01*
X146446602Y-124439226D01*
X146646561Y-124479000D01*
X146850439Y-124479000D01*
X147050398Y-124439226D01*
X147238756Y-124361205D01*
X147408274Y-124247937D01*
X147552437Y-124103774D01*
X147665705Y-123934256D01*
X147743726Y-123745898D01*
X147783500Y-123545939D01*
X147783500Y-123342061D01*
X147743726Y-123142102D01*
X147723674Y-123093691D01*
X147950000Y-123093691D01*
X147950000Y-123777308D01*
X147969678Y-123977106D01*
X148047445Y-124233467D01*
X148173730Y-124469730D01*
X148343682Y-124676817D01*
X148550769Y-124846770D01*
X148787032Y-124973055D01*
X149043393Y-125050822D01*
X149310000Y-125077080D01*
X149576606Y-125050822D01*
X149652558Y-125027782D01*
X149731063Y-125145274D01*
X149875226Y-125289437D01*
X150044744Y-125402705D01*
X150233102Y-125480726D01*
X150433061Y-125520500D01*
X150636939Y-125520500D01*
X150836898Y-125480726D01*
X151025256Y-125402705D01*
X151194774Y-125289437D01*
X151338937Y-125145274D01*
X151452205Y-124975756D01*
X151530226Y-124787398D01*
X151570000Y-124587439D01*
X151570000Y-124383561D01*
X154500000Y-124383561D01*
X154500000Y-124587439D01*
X154539774Y-124787398D01*
X154617795Y-124975756D01*
X154731063Y-125145274D01*
X154875226Y-125289437D01*
X155044744Y-125402705D01*
X155233102Y-125480726D01*
X155433061Y-125520500D01*
X155636939Y-125520500D01*
X155836898Y-125480726D01*
X156025256Y-125402705D01*
X156194774Y-125289437D01*
X156338937Y-125145274D01*
X156417442Y-125027782D01*
X156493393Y-125050822D01*
X156760000Y-125077080D01*
X157026606Y-125050822D01*
X157282967Y-124973055D01*
X157519230Y-124846770D01*
X157726317Y-124676818D01*
X157896270Y-124469731D01*
X158022555Y-124233468D01*
X158100322Y-123977107D01*
X158120000Y-123777309D01*
X158120000Y-123093692D01*
X158100322Y-122893894D01*
X158022555Y-122637532D01*
X157896270Y-122401269D01*
X157726318Y-122194182D01*
X157519231Y-122024230D01*
X157510596Y-122019615D01*
X157521937Y-122008274D01*
X157635205Y-121838756D01*
X157713226Y-121650398D01*
X157753000Y-121450439D01*
X157753000Y-121246561D01*
X157713226Y-121046602D01*
X157635205Y-120858244D01*
X157521937Y-120688726D01*
X157377774Y-120544563D01*
X157208256Y-120431295D01*
X157019898Y-120353274D01*
X156819939Y-120313500D01*
X156616061Y-120313500D01*
X156416102Y-120353274D01*
X156227744Y-120431295D01*
X156058226Y-120544563D01*
X155914063Y-120688726D01*
X155800795Y-120858244D01*
X155722774Y-121046602D01*
X155683000Y-121246561D01*
X155683000Y-121450439D01*
X155722774Y-121650398D01*
X155800795Y-121838756D01*
X155914063Y-122008274D01*
X155961910Y-122056121D01*
X155793683Y-122194182D01*
X155623730Y-122401269D01*
X155497445Y-122637532D01*
X155419678Y-122893893D01*
X155400000Y-123093691D01*
X155400000Y-123457076D01*
X155233102Y-123490274D01*
X155044744Y-123568295D01*
X154875226Y-123681563D01*
X154731063Y-123825726D01*
X154617795Y-123995244D01*
X154539774Y-124183602D01*
X154500000Y-124383561D01*
X151570000Y-124383561D01*
X151530226Y-124183602D01*
X151452205Y-123995244D01*
X151338937Y-123825726D01*
X151194774Y-123681563D01*
X151025256Y-123568295D01*
X150836898Y-123490274D01*
X150670000Y-123457076D01*
X150670000Y-123145500D01*
X150787439Y-123145500D01*
X150987398Y-123105726D01*
X151175756Y-123027705D01*
X151345274Y-122914437D01*
X151489437Y-122770274D01*
X151602705Y-122600756D01*
X151680726Y-122412398D01*
X151720500Y-122212439D01*
X151720500Y-122008561D01*
X151680726Y-121808602D01*
X151602705Y-121620244D01*
X151489437Y-121450726D01*
X151345274Y-121306563D01*
X151175756Y-121193295D01*
X150987398Y-121115274D01*
X150787439Y-121075500D01*
X150583561Y-121075500D01*
X150383602Y-121115274D01*
X150195244Y-121193295D01*
X150025726Y-121306563D01*
X149881563Y-121450726D01*
X149768295Y-121620244D01*
X149690274Y-121808602D01*
X149681634Y-121852038D01*
X149576607Y-121820178D01*
X149310000Y-121793920D01*
X149043394Y-121820178D01*
X148787033Y-121897945D01*
X148550770Y-122024230D01*
X148343683Y-122194182D01*
X148173730Y-122401269D01*
X148047445Y-122637532D01*
X147969678Y-122893893D01*
X147950000Y-123093691D01*
X147723674Y-123093691D01*
X147665705Y-122953744D01*
X147552437Y-122784226D01*
X147408274Y-122640063D01*
X147238756Y-122526795D01*
X147050398Y-122448774D01*
X146850439Y-122409000D01*
X146646561Y-122409000D01*
X146446602Y-122448774D01*
X146258244Y-122526795D01*
X146088726Y-122640063D01*
X145944563Y-122784226D01*
X145831295Y-122953744D01*
X145753274Y-123142102D01*
X145713500Y-123342061D01*
X144909805Y-123342061D01*
X144787039Y-123158330D01*
X144252870Y-122624161D01*
X143624754Y-122204467D01*
X142926828Y-121915377D01*
X142185915Y-121768000D01*
X141430485Y-121768000D01*
X140689572Y-121915377D01*
X139991646Y-122204467D01*
X139363530Y-122624161D01*
X139153500Y-122834191D01*
X139153500Y-118071561D01*
X142665500Y-118071561D01*
X142665500Y-118275439D01*
X142705274Y-118475398D01*
X142783295Y-118663756D01*
X142896563Y-118833274D01*
X143040726Y-118977437D01*
X143210244Y-119090705D01*
X143398602Y-119168726D01*
X143598561Y-119208500D01*
X143802439Y-119208500D01*
X144002398Y-119168726D01*
X144190756Y-119090705D01*
X144360274Y-118977437D01*
X144504437Y-118833274D01*
X144617705Y-118663756D01*
X144695726Y-118475398D01*
X144735500Y-118275439D01*
X144735500Y-118071561D01*
X144695726Y-117871602D01*
X144673342Y-117817561D01*
X160890000Y-117817561D01*
X160890000Y-118021439D01*
X160929774Y-118221398D01*
X161007795Y-118409756D01*
X161121063Y-118579274D01*
X161265226Y-118723437D01*
X161434744Y-118836705D01*
X161623102Y-118914726D01*
X161823061Y-118954500D01*
X162026939Y-118954500D01*
X162226898Y-118914726D01*
X162415256Y-118836705D01*
X162584774Y-118723437D01*
X162728937Y-118579274D01*
X162842205Y-118409756D01*
X162920226Y-118221398D01*
X162960000Y-118021439D01*
X162960000Y-117817561D01*
X162920226Y-117617602D01*
X162842205Y-117429244D01*
X162728937Y-117259726D01*
X162584774Y-117115563D01*
X162415256Y-117002295D01*
X162226898Y-116924274D01*
X162026939Y-116884500D01*
X161823061Y-116884500D01*
X161623102Y-116924274D01*
X161434744Y-117002295D01*
X161265226Y-117115563D01*
X161121063Y-117259726D01*
X161007795Y-117429244D01*
X160929774Y-117617602D01*
X160890000Y-117817561D01*
X144673342Y-117817561D01*
X144617705Y-117683244D01*
X144504437Y-117513726D01*
X144360274Y-117369563D01*
X144190756Y-117256295D01*
X144002398Y-117178274D01*
X143802439Y-117138500D01*
X143598561Y-117138500D01*
X143398602Y-117178274D01*
X143210244Y-117256295D01*
X143040726Y-117369563D01*
X142896563Y-117513726D01*
X142783295Y-117683244D01*
X142705274Y-117871602D01*
X142665500Y-118071561D01*
X139153500Y-118071561D01*
X139153500Y-111874060D01*
X146415999Y-111874060D01*
X146415999Y-112077938D01*
X146455773Y-112277897D01*
X146533794Y-112466255D01*
X146647062Y-112635773D01*
X146791225Y-112779936D01*
X146960743Y-112893204D01*
X147149101Y-112971225D01*
X147349060Y-113010999D01*
X147552938Y-113010999D01*
X147752897Y-112971225D01*
X147941255Y-112893204D01*
X148110773Y-112779936D01*
X148216648Y-112674061D01*
X155429000Y-112674061D01*
X155429000Y-112877939D01*
X155468774Y-113077898D01*
X155546795Y-113266256D01*
X155660063Y-113435774D01*
X155804226Y-113579937D01*
X155973744Y-113693205D01*
X156162102Y-113771226D01*
X156362061Y-113811000D01*
X156565939Y-113811000D01*
X156765898Y-113771226D01*
X156954256Y-113693205D01*
X157123774Y-113579937D01*
X157267937Y-113435774D01*
X157381205Y-113266256D01*
X157459226Y-113077898D01*
X157499000Y-112877939D01*
X157499000Y-112674061D01*
X157459226Y-112474102D01*
X157381205Y-112285744D01*
X157267937Y-112116226D01*
X157123774Y-111972063D01*
X156954256Y-111858795D01*
X156765898Y-111780774D01*
X156565939Y-111741000D01*
X156362061Y-111741000D01*
X156162102Y-111780774D01*
X155973744Y-111858795D01*
X155804226Y-111972063D01*
X155660063Y-112116226D01*
X155546795Y-112285744D01*
X155468774Y-112474102D01*
X155429000Y-112674061D01*
X148216648Y-112674061D01*
X148254936Y-112635773D01*
X148368204Y-112466255D01*
X148446225Y-112277897D01*
X148485999Y-112077938D01*
X148485999Y-111874060D01*
X148446225Y-111674101D01*
X148368204Y-111485743D01*
X148254936Y-111316225D01*
X148110773Y-111172062D01*
X147941255Y-111058794D01*
X147752897Y-110980773D01*
X147552938Y-110940999D01*
X147349060Y-110940999D01*
X147149101Y-110980773D01*
X146960743Y-111058794D01*
X146791225Y-111172062D01*
X146647062Y-111316225D01*
X146533794Y-111485743D01*
X146455773Y-111674101D01*
X146415999Y-111874060D01*
X139153500Y-111874060D01*
X139153500Y-108007226D01*
X139280561Y-108032500D01*
X139484439Y-108032500D01*
X139684398Y-107992726D01*
X139872756Y-107914705D01*
X140042274Y-107801437D01*
X140186437Y-107657274D01*
X140299705Y-107487756D01*
X140377726Y-107299398D01*
X140417500Y-107099439D01*
X140417500Y-106895561D01*
X140377726Y-106695602D01*
X140299705Y-106507244D01*
X140186437Y-106337726D01*
X140042274Y-106193563D01*
X139872756Y-106080295D01*
X139684398Y-106002274D01*
X139484439Y-105962500D01*
X139280561Y-105962500D01*
X139153500Y-105987774D01*
X139153500Y-104165061D01*
X152000000Y-104165061D01*
X152000000Y-104368939D01*
X152039774Y-104568898D01*
X152117795Y-104757256D01*
X152231063Y-104926774D01*
X152375226Y-105070937D01*
X152544744Y-105184205D01*
X152733102Y-105262226D01*
X152933061Y-105302000D01*
X153136939Y-105302000D01*
X153336898Y-105262226D01*
X153525256Y-105184205D01*
X153694774Y-105070937D01*
X153838937Y-104926774D01*
X153952205Y-104757256D01*
X154030226Y-104568898D01*
X154070000Y-104368939D01*
X154070000Y-104165061D01*
X154030226Y-103965102D01*
X153952205Y-103776744D01*
X153838937Y-103607226D01*
X153694774Y-103463063D01*
X153525256Y-103349795D01*
X153336898Y-103271774D01*
X153136939Y-103232000D01*
X152933061Y-103232000D01*
X152733102Y-103271774D01*
X152544744Y-103349795D01*
X152375226Y-103463063D01*
X152231063Y-103607226D01*
X152117795Y-103776744D01*
X152039774Y-103965102D01*
X152000000Y-104165061D01*
X139153500Y-104165061D01*
X139153500Y-99720061D01*
X156254500Y-99720061D01*
X156254500Y-99923939D01*
X156294274Y-100123898D01*
X156372295Y-100312256D01*
X156485563Y-100481774D01*
X156629726Y-100625937D01*
X156799244Y-100739205D01*
X156987602Y-100817226D01*
X157187561Y-100857000D01*
X157391439Y-100857000D01*
X157591398Y-100817226D01*
X157682721Y-100779399D01*
X157691274Y-100822398D01*
X157769295Y-101010756D01*
X157882563Y-101180274D01*
X158026726Y-101324437D01*
X158196244Y-101437705D01*
X158384602Y-101515726D01*
X158584561Y-101555500D01*
X158788439Y-101555500D01*
X158988398Y-101515726D01*
X159176756Y-101437705D01*
X159346274Y-101324437D01*
X159490437Y-101180274D01*
X159603705Y-101010756D01*
X159681726Y-100822398D01*
X159721500Y-100622439D01*
X159721500Y-100418561D01*
X159681726Y-100218602D01*
X159603705Y-100030244D01*
X159490437Y-99860726D01*
X159346274Y-99716563D01*
X159176756Y-99603295D01*
X158988398Y-99525274D01*
X158788439Y-99485500D01*
X158584561Y-99485500D01*
X158384602Y-99525274D01*
X158293279Y-99563101D01*
X158284726Y-99520102D01*
X158206705Y-99331744D01*
X158093437Y-99162226D01*
X157949274Y-99018063D01*
X157779756Y-98904795D01*
X157591398Y-98826774D01*
X157391439Y-98787000D01*
X157187561Y-98787000D01*
X156987602Y-98826774D01*
X156799244Y-98904795D01*
X156629726Y-99018063D01*
X156485563Y-99162226D01*
X156372295Y-99331744D01*
X156294274Y-99520102D01*
X156254500Y-99720061D01*
X139153500Y-99720061D01*
X139153500Y-92481061D01*
X147237500Y-92481061D01*
X147237500Y-92684939D01*
X147277274Y-92884898D01*
X147355295Y-93073256D01*
X147468563Y-93242774D01*
X147612726Y-93386937D01*
X147782244Y-93500205D01*
X147970602Y-93578226D01*
X148170561Y-93618000D01*
X148374439Y-93618000D01*
X148574398Y-93578226D01*
X148762756Y-93500205D01*
X148932274Y-93386937D01*
X149076437Y-93242774D01*
X149189705Y-93073256D01*
X149267726Y-92884898D01*
X149307500Y-92684939D01*
X149307500Y-92481061D01*
X149267726Y-92281102D01*
X149189705Y-92092744D01*
X149076437Y-91923226D01*
X148935772Y-91782561D01*
X163430000Y-91782561D01*
X163430000Y-91986439D01*
X163469774Y-92186398D01*
X163547795Y-92374756D01*
X163661063Y-92544274D01*
X163805226Y-92688437D01*
X163974744Y-92801705D01*
X164163102Y-92879726D01*
X164363061Y-92919500D01*
X164566939Y-92919500D01*
X164766898Y-92879726D01*
X164955256Y-92801705D01*
X165124774Y-92688437D01*
X165268937Y-92544274D01*
X165382205Y-92374756D01*
X165460226Y-92186398D01*
X165500000Y-91986439D01*
X165500000Y-91782561D01*
X165460226Y-91582602D01*
X165382205Y-91394244D01*
X165268937Y-91224726D01*
X165124774Y-91080563D01*
X164955256Y-90967295D01*
X164766898Y-90889274D01*
X164566939Y-90849500D01*
X164363061Y-90849500D01*
X164163102Y-90889274D01*
X163974744Y-90967295D01*
X163805226Y-91080563D01*
X163661063Y-91224726D01*
X163547795Y-91394244D01*
X163469774Y-91582602D01*
X163430000Y-91782561D01*
X148935772Y-91782561D01*
X148932274Y-91779063D01*
X148762756Y-91665795D01*
X148574398Y-91587774D01*
X148374439Y-91548000D01*
X148170561Y-91548000D01*
X147970602Y-91587774D01*
X147782244Y-91665795D01*
X147612726Y-91779063D01*
X147468563Y-91923226D01*
X147355295Y-92092744D01*
X147277274Y-92281102D01*
X147237500Y-92481061D01*
X139153500Y-92481061D01*
X139153500Y-89941061D01*
X145332500Y-89941061D01*
X145332500Y-90144939D01*
X145372274Y-90344898D01*
X145450295Y-90533256D01*
X145563563Y-90702774D01*
X145707726Y-90846937D01*
X145877244Y-90960205D01*
X146065602Y-91038226D01*
X146265561Y-91078000D01*
X146469439Y-91078000D01*
X146669398Y-91038226D01*
X146857756Y-90960205D01*
X147027274Y-90846937D01*
X147171437Y-90702774D01*
X147284705Y-90533256D01*
X147362726Y-90344898D01*
X147402500Y-90144939D01*
X147402500Y-89941061D01*
X154349500Y-89941061D01*
X154349500Y-90144939D01*
X154389274Y-90344898D01*
X154467295Y-90533256D01*
X154580563Y-90702774D01*
X154724726Y-90846937D01*
X154894244Y-90960205D01*
X155082602Y-91038226D01*
X155282561Y-91078000D01*
X155486439Y-91078000D01*
X155686398Y-91038226D01*
X155874756Y-90960205D01*
X156044274Y-90846937D01*
X156188437Y-90702774D01*
X156301705Y-90533256D01*
X156379726Y-90344898D01*
X156419500Y-90144939D01*
X156419500Y-89941061D01*
X156379726Y-89741102D01*
X156301705Y-89552744D01*
X156188437Y-89383226D01*
X156044274Y-89239063D01*
X155874756Y-89125795D01*
X155686398Y-89047774D01*
X155486439Y-89008000D01*
X155282561Y-89008000D01*
X155082602Y-89047774D01*
X154894244Y-89125795D01*
X154724726Y-89239063D01*
X154580563Y-89383226D01*
X154467295Y-89552744D01*
X154389274Y-89741102D01*
X154349500Y-89941061D01*
X147402500Y-89941061D01*
X147362726Y-89741102D01*
X147284705Y-89552744D01*
X147171437Y-89383226D01*
X147027274Y-89239063D01*
X146857756Y-89125795D01*
X146669398Y-89047774D01*
X146469439Y-89008000D01*
X146265561Y-89008000D01*
X146065602Y-89047774D01*
X145877244Y-89125795D01*
X145707726Y-89239063D01*
X145563563Y-89383226D01*
X145450295Y-89552744D01*
X145372274Y-89741102D01*
X145332500Y-89941061D01*
X139153500Y-89941061D01*
X139153500Y-88417061D01*
X163430000Y-88417061D01*
X163430000Y-88620939D01*
X163469774Y-88820898D01*
X163547795Y-89009256D01*
X163661063Y-89178774D01*
X163805226Y-89322937D01*
X163974744Y-89436205D01*
X164163102Y-89514226D01*
X164363061Y-89554000D01*
X164566939Y-89554000D01*
X164766898Y-89514226D01*
X164955256Y-89436205D01*
X165124774Y-89322937D01*
X165268937Y-89178774D01*
X165382205Y-89009256D01*
X165460226Y-88820898D01*
X165500000Y-88620939D01*
X165500000Y-88417061D01*
X165460226Y-88217102D01*
X165382205Y-88028744D01*
X165268937Y-87859226D01*
X165124774Y-87715063D01*
X164955256Y-87601795D01*
X164766898Y-87523774D01*
X164566939Y-87484000D01*
X164363061Y-87484000D01*
X164163102Y-87523774D01*
X163974744Y-87601795D01*
X163805226Y-87715063D01*
X163661063Y-87859226D01*
X163547795Y-88028744D01*
X163469774Y-88217102D01*
X163430000Y-88417061D01*
X139153500Y-88417061D01*
X139153500Y-85427816D01*
X139207602Y-85450226D01*
X139407561Y-85490000D01*
X139611439Y-85490000D01*
X139811398Y-85450226D01*
X139999756Y-85372205D01*
X140169274Y-85258937D01*
X140313437Y-85114774D01*
X140426705Y-84945256D01*
X140504726Y-84756898D01*
X140544500Y-84556939D01*
X140544500Y-84416561D01*
X142094000Y-84416561D01*
X142094000Y-84620439D01*
X142133774Y-84820398D01*
X142211795Y-85008756D01*
X142325063Y-85178274D01*
X142469226Y-85322437D01*
X142638744Y-85435705D01*
X142827102Y-85513726D01*
X143027061Y-85553500D01*
X143230939Y-85553500D01*
X143430898Y-85513726D01*
X143619256Y-85435705D01*
X143788774Y-85322437D01*
X143932937Y-85178274D01*
X144046205Y-85008756D01*
X144124226Y-84820398D01*
X144164000Y-84620439D01*
X144164000Y-84416561D01*
X161842500Y-84416561D01*
X161842500Y-84620439D01*
X161882274Y-84820398D01*
X161960295Y-85008756D01*
X162073563Y-85178274D01*
X162217726Y-85322437D01*
X162387244Y-85435705D01*
X162575602Y-85513726D01*
X162775561Y-85553500D01*
X162979439Y-85553500D01*
X163179398Y-85513726D01*
X163367756Y-85435705D01*
X163537274Y-85322437D01*
X163681437Y-85178274D01*
X163794705Y-85008756D01*
X163872726Y-84820398D01*
X163912500Y-84620439D01*
X163912500Y-84416561D01*
X163872726Y-84216602D01*
X163794705Y-84028244D01*
X163681437Y-83858726D01*
X163537274Y-83714563D01*
X163367756Y-83601295D01*
X163179398Y-83523274D01*
X162979439Y-83483500D01*
X162775561Y-83483500D01*
X162575602Y-83523274D01*
X162387244Y-83601295D01*
X162217726Y-83714563D01*
X162073563Y-83858726D01*
X161960295Y-84028244D01*
X161882274Y-84216602D01*
X161842500Y-84416561D01*
X144164000Y-84416561D01*
X144124226Y-84216602D01*
X144046205Y-84028244D01*
X143932937Y-83858726D01*
X143788774Y-83714563D01*
X143619256Y-83601295D01*
X143430898Y-83523274D01*
X143230939Y-83483500D01*
X143027061Y-83483500D01*
X142827102Y-83523274D01*
X142638744Y-83601295D01*
X142469226Y-83714563D01*
X142325063Y-83858726D01*
X142211795Y-84028244D01*
X142133774Y-84216602D01*
X142094000Y-84416561D01*
X140544500Y-84416561D01*
X140544500Y-84353061D01*
X140504726Y-84153102D01*
X140426705Y-83964744D01*
X140313437Y-83795226D01*
X140169274Y-83651063D01*
X139999756Y-83537795D01*
X139811398Y-83459774D01*
X139611439Y-83420000D01*
X139407561Y-83420000D01*
X139207602Y-83459774D01*
X139153500Y-83482184D01*
X139153500Y-83061217D01*
X166345000Y-83182068D01*
%TA.AperFunction,Conductor*%
D16*
G36*
X166345000Y-83182068D02*
G01*
X166345000Y-100081401D01*
X166271205Y-99903244D01*
X166157937Y-99733726D01*
X166013774Y-99589563D01*
X165844256Y-99476295D01*
X165655898Y-99398274D01*
X165455939Y-99358500D01*
X165252061Y-99358500D01*
X165052102Y-99398274D01*
X164863744Y-99476295D01*
X164694226Y-99589563D01*
X164550063Y-99733726D01*
X164436795Y-99903244D01*
X164358774Y-100091602D01*
X164319000Y-100291561D01*
X164319000Y-100495439D01*
X164358774Y-100695398D01*
X164436795Y-100883756D01*
X164550063Y-101053274D01*
X164694226Y-101197437D01*
X164863744Y-101310705D01*
X165052102Y-101388726D01*
X165252061Y-101428500D01*
X165455939Y-101428500D01*
X165655898Y-101388726D01*
X165844256Y-101310705D01*
X166013774Y-101197437D01*
X166157937Y-101053274D01*
X166271205Y-100883756D01*
X166345000Y-100705599D01*
X166345001Y-122796119D01*
X166337637Y-122788755D01*
X166224275Y-122902117D01*
X165864088Y-122412452D01*
X165200118Y-122052151D01*
X164478615Y-121828306D01*
X163727305Y-121749520D01*
X162975062Y-121818822D01*
X162250792Y-122033548D01*
X161582330Y-122385445D01*
X161541912Y-122412452D01*
X161181724Y-122902119D01*
X163703000Y-125423395D01*
X163717143Y-125409253D01*
X163896748Y-125588858D01*
X163882605Y-125603000D01*
X163896748Y-125617143D01*
X163717143Y-125796748D01*
X163703000Y-125782605D01*
X163688858Y-125796748D01*
X163509253Y-125617143D01*
X163523395Y-125603000D01*
X161002119Y-123081724D01*
X160512452Y-123441912D01*
X160152151Y-124105882D01*
X159928306Y-124827385D01*
X159849520Y-125578695D01*
X159918822Y-126330938D01*
X160133548Y-127055208D01*
X160485445Y-127723670D01*
X160512452Y-127764088D01*
X161002117Y-128124275D01*
X160888755Y-128237637D01*
X160896118Y-128245000D01*
X157913553Y-128245000D01*
X157920946Y-128235992D01*
X158033303Y-128025787D01*
X158102492Y-127797701D01*
X158120000Y-127619937D01*
X158120000Y-126851064D01*
X158102492Y-126673300D01*
X158033303Y-126445213D01*
X157920946Y-126235008D01*
X157769739Y-126050761D01*
X157585492Y-125899554D01*
X157375287Y-125787197D01*
X157147201Y-125718008D01*
X156910000Y-125694646D01*
X156672800Y-125718008D01*
X156444714Y-125787197D01*
X156234509Y-125899554D01*
X156050262Y-126050761D01*
X155899055Y-126235008D01*
X155786697Y-126445213D01*
X155717508Y-126673299D01*
X155700000Y-126851063D01*
X155700000Y-127619936D01*
X155717508Y-127797700D01*
X155786697Y-128025786D01*
X155899054Y-128235991D01*
X155906447Y-128245000D01*
X150163553Y-128245000D01*
X150170946Y-128235992D01*
X150283303Y-128025787D01*
X150352492Y-127797701D01*
X150370000Y-127619937D01*
X150370000Y-126851064D01*
X150352492Y-126673300D01*
X150283303Y-126445213D01*
X150170946Y-126235008D01*
X150019739Y-126050761D01*
X149835492Y-125899554D01*
X149625287Y-125787197D01*
X149397201Y-125718008D01*
X149160000Y-125694646D01*
X148922800Y-125718008D01*
X148694714Y-125787197D01*
X148484509Y-125899554D01*
X148300262Y-126050761D01*
X148149055Y-126235008D01*
X148036697Y-126445213D01*
X147967508Y-126673299D01*
X147950000Y-126851063D01*
X147950000Y-127619936D01*
X147967508Y-127797700D01*
X148036697Y-128025786D01*
X148149054Y-128235991D01*
X148156447Y-128245000D01*
X144589709Y-128245000D01*
X144787039Y-128047670D01*
X145206733Y-127419554D01*
X145495823Y-126721628D01*
X145643200Y-125980715D01*
X145643200Y-125225285D01*
X145495823Y-124484372D01*
X145206733Y-123786446D01*
X144909805Y-123342061D01*
X145713500Y-123342061D01*
X145713500Y-123545939D01*
X145753274Y-123745898D01*
X145831295Y-123934256D01*
X145944563Y-124103774D01*
X146088726Y-124247937D01*
X146258244Y-124361205D01*
X146446602Y-124439226D01*
X146646561Y-124479000D01*
X146850439Y-124479000D01*
X147050398Y-124439226D01*
X147238756Y-124361205D01*
X147408274Y-124247937D01*
X147552437Y-124103774D01*
X147665705Y-123934256D01*
X147743726Y-123745898D01*
X147783500Y-123545939D01*
X147783500Y-123342061D01*
X147743726Y-123142102D01*
X147723674Y-123093691D01*
X147950000Y-123093691D01*
X147950000Y-123777308D01*
X147969678Y-123977106D01*
X148047445Y-124233467D01*
X148173730Y-124469730D01*
X148343682Y-124676817D01*
X148550769Y-124846770D01*
X148787032Y-124973055D01*
X149043393Y-125050822D01*
X149310000Y-125077080D01*
X149576606Y-125050822D01*
X149652558Y-125027782D01*
X149731063Y-125145274D01*
X149875226Y-125289437D01*
X150044744Y-125402705D01*
X150233102Y-125480726D01*
X150433061Y-125520500D01*
X150636939Y-125520500D01*
X150836898Y-125480726D01*
X151025256Y-125402705D01*
X151194774Y-125289437D01*
X151338937Y-125145274D01*
X151452205Y-124975756D01*
X151530226Y-124787398D01*
X151570000Y-124587439D01*
X151570000Y-124383561D01*
X154500000Y-124383561D01*
X154500000Y-124587439D01*
X154539774Y-124787398D01*
X154617795Y-124975756D01*
X154731063Y-125145274D01*
X154875226Y-125289437D01*
X155044744Y-125402705D01*
X155233102Y-125480726D01*
X155433061Y-125520500D01*
X155636939Y-125520500D01*
X155836898Y-125480726D01*
X156025256Y-125402705D01*
X156194774Y-125289437D01*
X156338937Y-125145274D01*
X156417442Y-125027782D01*
X156493393Y-125050822D01*
X156760000Y-125077080D01*
X157026606Y-125050822D01*
X157282967Y-124973055D01*
X157519230Y-124846770D01*
X157726317Y-124676818D01*
X157896270Y-124469731D01*
X158022555Y-124233468D01*
X158100322Y-123977107D01*
X158120000Y-123777309D01*
X158120000Y-123093692D01*
X158100322Y-122893894D01*
X158022555Y-122637532D01*
X157896270Y-122401269D01*
X157726318Y-122194182D01*
X157519231Y-122024230D01*
X157510596Y-122019615D01*
X157521937Y-122008274D01*
X157635205Y-121838756D01*
X157713226Y-121650398D01*
X157753000Y-121450439D01*
X157753000Y-121246561D01*
X157713226Y-121046602D01*
X157635205Y-120858244D01*
X157521937Y-120688726D01*
X157377774Y-120544563D01*
X157208256Y-120431295D01*
X157019898Y-120353274D01*
X156819939Y-120313500D01*
X156616061Y-120313500D01*
X156416102Y-120353274D01*
X156227744Y-120431295D01*
X156058226Y-120544563D01*
X155914063Y-120688726D01*
X155800795Y-120858244D01*
X155722774Y-121046602D01*
X155683000Y-121246561D01*
X155683000Y-121450439D01*
X155722774Y-121650398D01*
X155800795Y-121838756D01*
X155914063Y-122008274D01*
X155961910Y-122056121D01*
X155793683Y-122194182D01*
X155623730Y-122401269D01*
X155497445Y-122637532D01*
X155419678Y-122893893D01*
X155400000Y-123093691D01*
X155400000Y-123457076D01*
X155233102Y-123490274D01*
X155044744Y-123568295D01*
X154875226Y-123681563D01*
X154731063Y-123825726D01*
X154617795Y-123995244D01*
X154539774Y-124183602D01*
X154500000Y-124383561D01*
X151570000Y-124383561D01*
X151530226Y-124183602D01*
X151452205Y-123995244D01*
X151338937Y-123825726D01*
X151194774Y-123681563D01*
X151025256Y-123568295D01*
X150836898Y-123490274D01*
X150670000Y-123457076D01*
X150670000Y-123145500D01*
X150787439Y-123145500D01*
X150987398Y-123105726D01*
X151175756Y-123027705D01*
X151345274Y-122914437D01*
X151489437Y-122770274D01*
X151602705Y-122600756D01*
X151680726Y-122412398D01*
X151720500Y-122212439D01*
X151720500Y-122008561D01*
X151680726Y-121808602D01*
X151602705Y-121620244D01*
X151489437Y-121450726D01*
X151345274Y-121306563D01*
X151175756Y-121193295D01*
X150987398Y-121115274D01*
X150787439Y-121075500D01*
X150583561Y-121075500D01*
X150383602Y-121115274D01*
X150195244Y-121193295D01*
X150025726Y-121306563D01*
X149881563Y-121450726D01*
X149768295Y-121620244D01*
X149690274Y-121808602D01*
X149681634Y-121852038D01*
X149576607Y-121820178D01*
X149310000Y-121793920D01*
X149043394Y-121820178D01*
X148787033Y-121897945D01*
X148550770Y-122024230D01*
X148343683Y-122194182D01*
X148173730Y-122401269D01*
X148047445Y-122637532D01*
X147969678Y-122893893D01*
X147950000Y-123093691D01*
X147723674Y-123093691D01*
X147665705Y-122953744D01*
X147552437Y-122784226D01*
X147408274Y-122640063D01*
X147238756Y-122526795D01*
X147050398Y-122448774D01*
X146850439Y-122409000D01*
X146646561Y-122409000D01*
X146446602Y-122448774D01*
X146258244Y-122526795D01*
X146088726Y-122640063D01*
X145944563Y-122784226D01*
X145831295Y-122953744D01*
X145753274Y-123142102D01*
X145713500Y-123342061D01*
X144909805Y-123342061D01*
X144787039Y-123158330D01*
X144252870Y-122624161D01*
X143624754Y-122204467D01*
X142926828Y-121915377D01*
X142185915Y-121768000D01*
X141430485Y-121768000D01*
X140689572Y-121915377D01*
X139991646Y-122204467D01*
X139363530Y-122624161D01*
X139153500Y-122834191D01*
X139153500Y-118071561D01*
X142665500Y-118071561D01*
X142665500Y-118275439D01*
X142705274Y-118475398D01*
X142783295Y-118663756D01*
X142896563Y-118833274D01*
X143040726Y-118977437D01*
X143210244Y-119090705D01*
X143398602Y-119168726D01*
X143598561Y-119208500D01*
X143802439Y-119208500D01*
X144002398Y-119168726D01*
X144190756Y-119090705D01*
X144360274Y-118977437D01*
X144504437Y-118833274D01*
X144617705Y-118663756D01*
X144695726Y-118475398D01*
X144735500Y-118275439D01*
X144735500Y-118071561D01*
X144695726Y-117871602D01*
X144673342Y-117817561D01*
X160890000Y-117817561D01*
X160890000Y-118021439D01*
X160929774Y-118221398D01*
X161007795Y-118409756D01*
X161121063Y-118579274D01*
X161265226Y-118723437D01*
X161434744Y-118836705D01*
X161623102Y-118914726D01*
X161823061Y-118954500D01*
X162026939Y-118954500D01*
X162226898Y-118914726D01*
X162415256Y-118836705D01*
X162584774Y-118723437D01*
X162728937Y-118579274D01*
X162842205Y-118409756D01*
X162920226Y-118221398D01*
X162960000Y-118021439D01*
X162960000Y-117817561D01*
X162920226Y-117617602D01*
X162842205Y-117429244D01*
X162728937Y-117259726D01*
X162584774Y-117115563D01*
X162415256Y-117002295D01*
X162226898Y-116924274D01*
X162026939Y-116884500D01*
X161823061Y-116884500D01*
X161623102Y-116924274D01*
X161434744Y-117002295D01*
X161265226Y-117115563D01*
X161121063Y-117259726D01*
X161007795Y-117429244D01*
X160929774Y-117617602D01*
X160890000Y-117817561D01*
X144673342Y-117817561D01*
X144617705Y-117683244D01*
X144504437Y-117513726D01*
X144360274Y-117369563D01*
X144190756Y-117256295D01*
X144002398Y-117178274D01*
X143802439Y-117138500D01*
X143598561Y-117138500D01*
X143398602Y-117178274D01*
X143210244Y-117256295D01*
X143040726Y-117369563D01*
X142896563Y-117513726D01*
X142783295Y-117683244D01*
X142705274Y-117871602D01*
X142665500Y-118071561D01*
X139153500Y-118071561D01*
X139153500Y-111874060D01*
X146415999Y-111874060D01*
X146415999Y-112077938D01*
X146455773Y-112277897D01*
X146533794Y-112466255D01*
X146647062Y-112635773D01*
X146791225Y-112779936D01*
X146960743Y-112893204D01*
X147149101Y-112971225D01*
X147349060Y-113010999D01*
X147552938Y-113010999D01*
X147752897Y-112971225D01*
X147941255Y-112893204D01*
X148110773Y-112779936D01*
X148216648Y-112674061D01*
X155429000Y-112674061D01*
X155429000Y-112877939D01*
X155468774Y-113077898D01*
X155546795Y-113266256D01*
X155660063Y-113435774D01*
X155804226Y-113579937D01*
X155973744Y-113693205D01*
X156162102Y-113771226D01*
X156362061Y-113811000D01*
X156565939Y-113811000D01*
X156765898Y-113771226D01*
X156954256Y-113693205D01*
X157123774Y-113579937D01*
X157267937Y-113435774D01*
X157381205Y-113266256D01*
X157459226Y-113077898D01*
X157499000Y-112877939D01*
X157499000Y-112674061D01*
X157459226Y-112474102D01*
X157381205Y-112285744D01*
X157267937Y-112116226D01*
X157123774Y-111972063D01*
X156954256Y-111858795D01*
X156765898Y-111780774D01*
X156565939Y-111741000D01*
X156362061Y-111741000D01*
X156162102Y-111780774D01*
X155973744Y-111858795D01*
X155804226Y-111972063D01*
X155660063Y-112116226D01*
X155546795Y-112285744D01*
X155468774Y-112474102D01*
X155429000Y-112674061D01*
X148216648Y-112674061D01*
X148254936Y-112635773D01*
X148368204Y-112466255D01*
X148446225Y-112277897D01*
X148485999Y-112077938D01*
X148485999Y-111874060D01*
X148446225Y-111674101D01*
X148368204Y-111485743D01*
X148254936Y-111316225D01*
X148110773Y-111172062D01*
X147941255Y-111058794D01*
X147752897Y-110980773D01*
X147552938Y-110940999D01*
X147349060Y-110940999D01*
X147149101Y-110980773D01*
X146960743Y-111058794D01*
X146791225Y-111172062D01*
X146647062Y-111316225D01*
X146533794Y-111485743D01*
X146455773Y-111674101D01*
X146415999Y-111874060D01*
X139153500Y-111874060D01*
X139153500Y-108007226D01*
X139280561Y-108032500D01*
X139484439Y-108032500D01*
X139684398Y-107992726D01*
X139872756Y-107914705D01*
X140042274Y-107801437D01*
X140186437Y-107657274D01*
X140299705Y-107487756D01*
X140377726Y-107299398D01*
X140417500Y-107099439D01*
X140417500Y-106895561D01*
X140377726Y-106695602D01*
X140299705Y-106507244D01*
X140186437Y-106337726D01*
X140042274Y-106193563D01*
X139872756Y-106080295D01*
X139684398Y-106002274D01*
X139484439Y-105962500D01*
X139280561Y-105962500D01*
X139153500Y-105987774D01*
X139153500Y-104165061D01*
X152000000Y-104165061D01*
X152000000Y-104368939D01*
X152039774Y-104568898D01*
X152117795Y-104757256D01*
X152231063Y-104926774D01*
X152375226Y-105070937D01*
X152544744Y-105184205D01*
X152733102Y-105262226D01*
X152933061Y-105302000D01*
X153136939Y-105302000D01*
X153336898Y-105262226D01*
X153525256Y-105184205D01*
X153694774Y-105070937D01*
X153838937Y-104926774D01*
X153952205Y-104757256D01*
X154030226Y-104568898D01*
X154070000Y-104368939D01*
X154070000Y-104165061D01*
X154030226Y-103965102D01*
X153952205Y-103776744D01*
X153838937Y-103607226D01*
X153694774Y-103463063D01*
X153525256Y-103349795D01*
X153336898Y-103271774D01*
X153136939Y-103232000D01*
X152933061Y-103232000D01*
X152733102Y-103271774D01*
X152544744Y-103349795D01*
X152375226Y-103463063D01*
X152231063Y-103607226D01*
X152117795Y-103776744D01*
X152039774Y-103965102D01*
X152000000Y-104165061D01*
X139153500Y-104165061D01*
X139153500Y-99720061D01*
X156254500Y-99720061D01*
X156254500Y-99923939D01*
X156294274Y-100123898D01*
X156372295Y-100312256D01*
X156485563Y-100481774D01*
X156629726Y-100625937D01*
X156799244Y-100739205D01*
X156987602Y-100817226D01*
X157187561Y-100857000D01*
X157391439Y-100857000D01*
X157591398Y-100817226D01*
X157682721Y-100779399D01*
X157691274Y-100822398D01*
X157769295Y-101010756D01*
X157882563Y-101180274D01*
X158026726Y-101324437D01*
X158196244Y-101437705D01*
X158384602Y-101515726D01*
X158584561Y-101555500D01*
X158788439Y-101555500D01*
X158988398Y-101515726D01*
X159176756Y-101437705D01*
X159346274Y-101324437D01*
X159490437Y-101180274D01*
X159603705Y-101010756D01*
X159681726Y-100822398D01*
X159721500Y-100622439D01*
X159721500Y-100418561D01*
X159681726Y-100218602D01*
X159603705Y-100030244D01*
X159490437Y-99860726D01*
X159346274Y-99716563D01*
X159176756Y-99603295D01*
X158988398Y-99525274D01*
X158788439Y-99485500D01*
X158584561Y-99485500D01*
X158384602Y-99525274D01*
X158293279Y-99563101D01*
X158284726Y-99520102D01*
X158206705Y-99331744D01*
X158093437Y-99162226D01*
X157949274Y-99018063D01*
X157779756Y-98904795D01*
X157591398Y-98826774D01*
X157391439Y-98787000D01*
X157187561Y-98787000D01*
X156987602Y-98826774D01*
X156799244Y-98904795D01*
X156629726Y-99018063D01*
X156485563Y-99162226D01*
X156372295Y-99331744D01*
X156294274Y-99520102D01*
X156254500Y-99720061D01*
X139153500Y-99720061D01*
X139153500Y-92481061D01*
X147237500Y-92481061D01*
X147237500Y-92684939D01*
X147277274Y-92884898D01*
X147355295Y-93073256D01*
X147468563Y-93242774D01*
X147612726Y-93386937D01*
X147782244Y-93500205D01*
X147970602Y-93578226D01*
X148170561Y-93618000D01*
X148374439Y-93618000D01*
X148574398Y-93578226D01*
X148762756Y-93500205D01*
X148932274Y-93386937D01*
X149076437Y-93242774D01*
X149189705Y-93073256D01*
X149267726Y-92884898D01*
X149307500Y-92684939D01*
X149307500Y-92481061D01*
X149267726Y-92281102D01*
X149189705Y-92092744D01*
X149076437Y-91923226D01*
X148935772Y-91782561D01*
X163430000Y-91782561D01*
X163430000Y-91986439D01*
X163469774Y-92186398D01*
X163547795Y-92374756D01*
X163661063Y-92544274D01*
X163805226Y-92688437D01*
X163974744Y-92801705D01*
X164163102Y-92879726D01*
X164363061Y-92919500D01*
X164566939Y-92919500D01*
X164766898Y-92879726D01*
X164955256Y-92801705D01*
X165124774Y-92688437D01*
X165268937Y-92544274D01*
X165382205Y-92374756D01*
X165460226Y-92186398D01*
X165500000Y-91986439D01*
X165500000Y-91782561D01*
X165460226Y-91582602D01*
X165382205Y-91394244D01*
X165268937Y-91224726D01*
X165124774Y-91080563D01*
X164955256Y-90967295D01*
X164766898Y-90889274D01*
X164566939Y-90849500D01*
X164363061Y-90849500D01*
X164163102Y-90889274D01*
X163974744Y-90967295D01*
X163805226Y-91080563D01*
X163661063Y-91224726D01*
X163547795Y-91394244D01*
X163469774Y-91582602D01*
X163430000Y-91782561D01*
X148935772Y-91782561D01*
X148932274Y-91779063D01*
X148762756Y-91665795D01*
X148574398Y-91587774D01*
X148374439Y-91548000D01*
X148170561Y-91548000D01*
X147970602Y-91587774D01*
X147782244Y-91665795D01*
X147612726Y-91779063D01*
X147468563Y-91923226D01*
X147355295Y-92092744D01*
X147277274Y-92281102D01*
X147237500Y-92481061D01*
X139153500Y-92481061D01*
X139153500Y-89941061D01*
X145332500Y-89941061D01*
X145332500Y-90144939D01*
X145372274Y-90344898D01*
X145450295Y-90533256D01*
X145563563Y-90702774D01*
X145707726Y-90846937D01*
X145877244Y-90960205D01*
X146065602Y-91038226D01*
X146265561Y-91078000D01*
X146469439Y-91078000D01*
X146669398Y-91038226D01*
X146857756Y-90960205D01*
X147027274Y-90846937D01*
X147171437Y-90702774D01*
X147284705Y-90533256D01*
X147362726Y-90344898D01*
X147402500Y-90144939D01*
X147402500Y-89941061D01*
X154349500Y-89941061D01*
X154349500Y-90144939D01*
X154389274Y-90344898D01*
X154467295Y-90533256D01*
X154580563Y-90702774D01*
X154724726Y-90846937D01*
X154894244Y-90960205D01*
X155082602Y-91038226D01*
X155282561Y-91078000D01*
X155486439Y-91078000D01*
X155686398Y-91038226D01*
X155874756Y-90960205D01*
X156044274Y-90846937D01*
X156188437Y-90702774D01*
X156301705Y-90533256D01*
X156379726Y-90344898D01*
X156419500Y-90144939D01*
X156419500Y-89941061D01*
X156379726Y-89741102D01*
X156301705Y-89552744D01*
X156188437Y-89383226D01*
X156044274Y-89239063D01*
X155874756Y-89125795D01*
X155686398Y-89047774D01*
X155486439Y-89008000D01*
X155282561Y-89008000D01*
X155082602Y-89047774D01*
X154894244Y-89125795D01*
X154724726Y-89239063D01*
X154580563Y-89383226D01*
X154467295Y-89552744D01*
X154389274Y-89741102D01*
X154349500Y-89941061D01*
X147402500Y-89941061D01*
X147362726Y-89741102D01*
X147284705Y-89552744D01*
X147171437Y-89383226D01*
X147027274Y-89239063D01*
X146857756Y-89125795D01*
X146669398Y-89047774D01*
X146469439Y-89008000D01*
X146265561Y-89008000D01*
X146065602Y-89047774D01*
X145877244Y-89125795D01*
X145707726Y-89239063D01*
X145563563Y-89383226D01*
X145450295Y-89552744D01*
X145372274Y-89741102D01*
X145332500Y-89941061D01*
X139153500Y-89941061D01*
X139153500Y-88417061D01*
X163430000Y-88417061D01*
X163430000Y-88620939D01*
X163469774Y-88820898D01*
X163547795Y-89009256D01*
X163661063Y-89178774D01*
X163805226Y-89322937D01*
X163974744Y-89436205D01*
X164163102Y-89514226D01*
X164363061Y-89554000D01*
X164566939Y-89554000D01*
X164766898Y-89514226D01*
X164955256Y-89436205D01*
X165124774Y-89322937D01*
X165268937Y-89178774D01*
X165382205Y-89009256D01*
X165460226Y-88820898D01*
X165500000Y-88620939D01*
X165500000Y-88417061D01*
X165460226Y-88217102D01*
X165382205Y-88028744D01*
X165268937Y-87859226D01*
X165124774Y-87715063D01*
X164955256Y-87601795D01*
X164766898Y-87523774D01*
X164566939Y-87484000D01*
X164363061Y-87484000D01*
X164163102Y-87523774D01*
X163974744Y-87601795D01*
X163805226Y-87715063D01*
X163661063Y-87859226D01*
X163547795Y-88028744D01*
X163469774Y-88217102D01*
X163430000Y-88417061D01*
X139153500Y-88417061D01*
X139153500Y-85427816D01*
X139207602Y-85450226D01*
X139407561Y-85490000D01*
X139611439Y-85490000D01*
X139811398Y-85450226D01*
X139999756Y-85372205D01*
X140169274Y-85258937D01*
X140313437Y-85114774D01*
X140426705Y-84945256D01*
X140504726Y-84756898D01*
X140544500Y-84556939D01*
X140544500Y-84416561D01*
X142094000Y-84416561D01*
X142094000Y-84620439D01*
X142133774Y-84820398D01*
X142211795Y-85008756D01*
X142325063Y-85178274D01*
X142469226Y-85322437D01*
X142638744Y-85435705D01*
X142827102Y-85513726D01*
X143027061Y-85553500D01*
X143230939Y-85553500D01*
X143430898Y-85513726D01*
X143619256Y-85435705D01*
X143788774Y-85322437D01*
X143932937Y-85178274D01*
X144046205Y-85008756D01*
X144124226Y-84820398D01*
X144164000Y-84620439D01*
X144164000Y-84416561D01*
X161842500Y-84416561D01*
X161842500Y-84620439D01*
X161882274Y-84820398D01*
X161960295Y-85008756D01*
X162073563Y-85178274D01*
X162217726Y-85322437D01*
X162387244Y-85435705D01*
X162575602Y-85513726D01*
X162775561Y-85553500D01*
X162979439Y-85553500D01*
X163179398Y-85513726D01*
X163367756Y-85435705D01*
X163537274Y-85322437D01*
X163681437Y-85178274D01*
X163794705Y-85008756D01*
X163872726Y-84820398D01*
X163912500Y-84620439D01*
X163912500Y-84416561D01*
X163872726Y-84216602D01*
X163794705Y-84028244D01*
X163681437Y-83858726D01*
X163537274Y-83714563D01*
X163367756Y-83601295D01*
X163179398Y-83523274D01*
X162979439Y-83483500D01*
X162775561Y-83483500D01*
X162575602Y-83523274D01*
X162387244Y-83601295D01*
X162217726Y-83714563D01*
X162073563Y-83858726D01*
X161960295Y-84028244D01*
X161882274Y-84216602D01*
X161842500Y-84416561D01*
X144164000Y-84416561D01*
X144124226Y-84216602D01*
X144046205Y-84028244D01*
X143932937Y-83858726D01*
X143788774Y-83714563D01*
X143619256Y-83601295D01*
X143430898Y-83523274D01*
X143230939Y-83483500D01*
X143027061Y-83483500D01*
X142827102Y-83523274D01*
X142638744Y-83601295D01*
X142469226Y-83714563D01*
X142325063Y-83858726D01*
X142211795Y-84028244D01*
X142133774Y-84216602D01*
X142094000Y-84416561D01*
X140544500Y-84416561D01*
X140544500Y-84353061D01*
X140504726Y-84153102D01*
X140426705Y-83964744D01*
X140313437Y-83795226D01*
X140169274Y-83651063D01*
X139999756Y-83537795D01*
X139811398Y-83459774D01*
X139611439Y-83420000D01*
X139407561Y-83420000D01*
X139207602Y-83459774D01*
X139153500Y-83482184D01*
X139153500Y-83061217D01*
X166345000Y-83182068D01*
G37*
%TD.AperFunction*%
%TD*%
M02*
