%TF.GenerationSoftware,KiCad,Pcbnew,(5.1.12-1-10_14)*%
%TF.CreationDate,2022-01-26T17:57:44+01:00*%
%TF.ProjectId,tiny-led-esp32,74696e79-2d6c-4656-942d-65737033322e,rev?*%
%TF.SameCoordinates,Original*%
%TF.FileFunction,Paste,Top*%
%TF.FilePolarity,Positive*%
%FSLAX46Y46*%
G04 Gerber Fmt 4.6, Leading zero omitted, Abs format (unit mm)*
G04 Created by KiCad (PCBNEW (5.1.12-1-10_14)) date 2022-01-26 17:57:44*
%MOMM*%
%LPD*%
G01*
G04 APERTURE LIST*
%ADD10R,1.500000X1.000000*%
G04 APERTURE END LIST*
%TO.C,R1*%
G36*
G01*
X147373501Y-124832000D02*
X146123499Y-124832000D01*
G75*
G02*
X145873500Y-124582001I0J249999D01*
G01*
X145873500Y-123956999D01*
G75*
G02*
X146123499Y-123707000I249999J0D01*
G01*
X147373501Y-123707000D01*
G75*
G02*
X147623500Y-123956999I0J-249999D01*
G01*
X147623500Y-124582001D01*
G75*
G02*
X147373501Y-124832000I-249999J0D01*
G01*
G37*
G36*
G01*
X147373501Y-127757000D02*
X146123499Y-127757000D01*
G75*
G02*
X145873500Y-127507001I0J249999D01*
G01*
X145873500Y-126881999D01*
G75*
G02*
X146123499Y-126632000I249999J0D01*
G01*
X147373501Y-126632000D01*
G75*
G02*
X147623500Y-126881999I0J-249999D01*
G01*
X147623500Y-127507001D01*
G75*
G02*
X147373501Y-127757000I-249999J0D01*
G01*
G37*
%TD*%
%TO.C,C13*%
G36*
G01*
X161100000Y-119349999D02*
X161100000Y-120650001D01*
G75*
G02*
X160850001Y-120900000I-249999J0D01*
G01*
X160199999Y-120900000D01*
G75*
G02*
X159950000Y-120650001I0J249999D01*
G01*
X159950000Y-119349999D01*
G75*
G02*
X160199999Y-119100000I249999J0D01*
G01*
X160850001Y-119100000D01*
G75*
G02*
X161100000Y-119349999I0J-249999D01*
G01*
G37*
G36*
G01*
X164050000Y-119349999D02*
X164050000Y-120650001D01*
G75*
G02*
X163800001Y-120900000I-249999J0D01*
G01*
X163149999Y-120900000D01*
G75*
G02*
X162900000Y-120650001I0J249999D01*
G01*
X162900000Y-119349999D01*
G75*
G02*
X163149999Y-119100000I249999J0D01*
G01*
X163800001Y-119100000D01*
G75*
G02*
X164050000Y-119349999I0J-249999D01*
G01*
G37*
%TD*%
%TO.C,C12*%
G36*
G01*
X152100000Y-119349999D02*
X152100000Y-120650001D01*
G75*
G02*
X151850001Y-120900000I-249999J0D01*
G01*
X151199999Y-120900000D01*
G75*
G02*
X150950000Y-120650001I0J249999D01*
G01*
X150950000Y-119349999D01*
G75*
G02*
X151199999Y-119100000I249999J0D01*
G01*
X151850001Y-119100000D01*
G75*
G02*
X152100000Y-119349999I0J-249999D01*
G01*
G37*
G36*
G01*
X155050000Y-119349999D02*
X155050000Y-120650001D01*
G75*
G02*
X154800001Y-120900000I-249999J0D01*
G01*
X154149999Y-120900000D01*
G75*
G02*
X153900000Y-120650001I0J249999D01*
G01*
X153900000Y-119349999D01*
G75*
G02*
X154149999Y-119100000I249999J0D01*
G01*
X154800001Y-119100000D01*
G75*
G02*
X155050000Y-119349999I0J-249999D01*
G01*
G37*
%TD*%
%TO.C,C11*%
G36*
G01*
X143100000Y-119349999D02*
X143100000Y-120650001D01*
G75*
G02*
X142850001Y-120900000I-249999J0D01*
G01*
X142199999Y-120900000D01*
G75*
G02*
X141950000Y-120650001I0J249999D01*
G01*
X141950000Y-119349999D01*
G75*
G02*
X142199999Y-119100000I249999J0D01*
G01*
X142850001Y-119100000D01*
G75*
G02*
X143100000Y-119349999I0J-249999D01*
G01*
G37*
G36*
G01*
X146050000Y-119349999D02*
X146050000Y-120650001D01*
G75*
G02*
X145800001Y-120900000I-249999J0D01*
G01*
X145149999Y-120900000D01*
G75*
G02*
X144900000Y-120650001I0J249999D01*
G01*
X144900000Y-119349999D01*
G75*
G02*
X145149999Y-119100000I249999J0D01*
G01*
X145800001Y-119100000D01*
G75*
G02*
X146050000Y-119349999I0J-249999D01*
G01*
G37*
%TD*%
%TO.C,C10*%
G36*
G01*
X144900000Y-110650001D02*
X144900000Y-109349999D01*
G75*
G02*
X145149999Y-109100000I249999J0D01*
G01*
X145800001Y-109100000D01*
G75*
G02*
X146050000Y-109349999I0J-249999D01*
G01*
X146050000Y-110650001D01*
G75*
G02*
X145800001Y-110900000I-249999J0D01*
G01*
X145149999Y-110900000D01*
G75*
G02*
X144900000Y-110650001I0J249999D01*
G01*
G37*
G36*
G01*
X141950000Y-110650001D02*
X141950000Y-109349999D01*
G75*
G02*
X142199999Y-109100000I249999J0D01*
G01*
X142850001Y-109100000D01*
G75*
G02*
X143100000Y-109349999I0J-249999D01*
G01*
X143100000Y-110650001D01*
G75*
G02*
X142850001Y-110900000I-249999J0D01*
G01*
X142199999Y-110900000D01*
G75*
G02*
X141950000Y-110650001I0J249999D01*
G01*
G37*
%TD*%
%TO.C,C9*%
G36*
G01*
X153900000Y-110650001D02*
X153900000Y-109349999D01*
G75*
G02*
X154149999Y-109100000I249999J0D01*
G01*
X154800001Y-109100000D01*
G75*
G02*
X155050000Y-109349999I0J-249999D01*
G01*
X155050000Y-110650001D01*
G75*
G02*
X154800001Y-110900000I-249999J0D01*
G01*
X154149999Y-110900000D01*
G75*
G02*
X153900000Y-110650001I0J249999D01*
G01*
G37*
G36*
G01*
X150950000Y-110650001D02*
X150950000Y-109349999D01*
G75*
G02*
X151199999Y-109100000I249999J0D01*
G01*
X151850001Y-109100000D01*
G75*
G02*
X152100000Y-109349999I0J-249999D01*
G01*
X152100000Y-110650001D01*
G75*
G02*
X151850001Y-110900000I-249999J0D01*
G01*
X151199999Y-110900000D01*
G75*
G02*
X150950000Y-110650001I0J249999D01*
G01*
G37*
%TD*%
%TO.C,C8*%
G36*
G01*
X162900000Y-110650001D02*
X162900000Y-109349999D01*
G75*
G02*
X163149999Y-109100000I249999J0D01*
G01*
X163800001Y-109100000D01*
G75*
G02*
X164050000Y-109349999I0J-249999D01*
G01*
X164050000Y-110650001D01*
G75*
G02*
X163800001Y-110900000I-249999J0D01*
G01*
X163149999Y-110900000D01*
G75*
G02*
X162900000Y-110650001I0J249999D01*
G01*
G37*
G36*
G01*
X159950000Y-110650001D02*
X159950000Y-109349999D01*
G75*
G02*
X160199999Y-109100000I249999J0D01*
G01*
X160850001Y-109100000D01*
G75*
G02*
X161100000Y-109349999I0J-249999D01*
G01*
X161100000Y-110650001D01*
G75*
G02*
X160850001Y-110900000I-249999J0D01*
G01*
X160199999Y-110900000D01*
G75*
G02*
X159950000Y-110650001I0J249999D01*
G01*
G37*
%TD*%
%TO.C,C7*%
G36*
G01*
X161100000Y-99349999D02*
X161100000Y-100650001D01*
G75*
G02*
X160850001Y-100900000I-249999J0D01*
G01*
X160199999Y-100900000D01*
G75*
G02*
X159950000Y-100650001I0J249999D01*
G01*
X159950000Y-99349999D01*
G75*
G02*
X160199999Y-99100000I249999J0D01*
G01*
X160850001Y-99100000D01*
G75*
G02*
X161100000Y-99349999I0J-249999D01*
G01*
G37*
G36*
G01*
X164050000Y-99349999D02*
X164050000Y-100650001D01*
G75*
G02*
X163800001Y-100900000I-249999J0D01*
G01*
X163149999Y-100900000D01*
G75*
G02*
X162900000Y-100650001I0J249999D01*
G01*
X162900000Y-99349999D01*
G75*
G02*
X163149999Y-99100000I249999J0D01*
G01*
X163800001Y-99100000D01*
G75*
G02*
X164050000Y-99349999I0J-249999D01*
G01*
G37*
%TD*%
%TO.C,C6*%
G36*
G01*
X152100000Y-99349999D02*
X152100000Y-100650001D01*
G75*
G02*
X151850001Y-100900000I-249999J0D01*
G01*
X151199999Y-100900000D01*
G75*
G02*
X150950000Y-100650001I0J249999D01*
G01*
X150950000Y-99349999D01*
G75*
G02*
X151199999Y-99100000I249999J0D01*
G01*
X151850001Y-99100000D01*
G75*
G02*
X152100000Y-99349999I0J-249999D01*
G01*
G37*
G36*
G01*
X155050000Y-99349999D02*
X155050000Y-100650001D01*
G75*
G02*
X154800001Y-100900000I-249999J0D01*
G01*
X154149999Y-100900000D01*
G75*
G02*
X153900000Y-100650001I0J249999D01*
G01*
X153900000Y-99349999D01*
G75*
G02*
X154149999Y-99100000I249999J0D01*
G01*
X154800001Y-99100000D01*
G75*
G02*
X155050000Y-99349999I0J-249999D01*
G01*
G37*
%TD*%
%TO.C,C5*%
G36*
G01*
X143100000Y-99349999D02*
X143100000Y-100650001D01*
G75*
G02*
X142850001Y-100900000I-249999J0D01*
G01*
X142199999Y-100900000D01*
G75*
G02*
X141950000Y-100650001I0J249999D01*
G01*
X141950000Y-99349999D01*
G75*
G02*
X142199999Y-99100000I249999J0D01*
G01*
X142850001Y-99100000D01*
G75*
G02*
X143100000Y-99349999I0J-249999D01*
G01*
G37*
G36*
G01*
X146050000Y-99349999D02*
X146050000Y-100650001D01*
G75*
G02*
X145800001Y-100900000I-249999J0D01*
G01*
X145149999Y-100900000D01*
G75*
G02*
X144900000Y-100650001I0J249999D01*
G01*
X144900000Y-99349999D01*
G75*
G02*
X145149999Y-99100000I249999J0D01*
G01*
X145800001Y-99100000D01*
G75*
G02*
X146050000Y-99349999I0J-249999D01*
G01*
G37*
%TD*%
%TO.C,C4*%
G36*
G01*
X144900000Y-90650001D02*
X144900000Y-89349999D01*
G75*
G02*
X145149999Y-89100000I249999J0D01*
G01*
X145800001Y-89100000D01*
G75*
G02*
X146050000Y-89349999I0J-249999D01*
G01*
X146050000Y-90650001D01*
G75*
G02*
X145800001Y-90900000I-249999J0D01*
G01*
X145149999Y-90900000D01*
G75*
G02*
X144900000Y-90650001I0J249999D01*
G01*
G37*
G36*
G01*
X141950000Y-90650001D02*
X141950000Y-89349999D01*
G75*
G02*
X142199999Y-89100000I249999J0D01*
G01*
X142850001Y-89100000D01*
G75*
G02*
X143100000Y-89349999I0J-249999D01*
G01*
X143100000Y-90650001D01*
G75*
G02*
X142850001Y-90900000I-249999J0D01*
G01*
X142199999Y-90900000D01*
G75*
G02*
X141950000Y-90650001I0J249999D01*
G01*
G37*
%TD*%
%TO.C,C3*%
G36*
G01*
X153900000Y-90650001D02*
X153900000Y-89349999D01*
G75*
G02*
X154149999Y-89100000I249999J0D01*
G01*
X154800001Y-89100000D01*
G75*
G02*
X155050000Y-89349999I0J-249999D01*
G01*
X155050000Y-90650001D01*
G75*
G02*
X154800001Y-90900000I-249999J0D01*
G01*
X154149999Y-90900000D01*
G75*
G02*
X153900000Y-90650001I0J249999D01*
G01*
G37*
G36*
G01*
X150950000Y-90650001D02*
X150950000Y-89349999D01*
G75*
G02*
X151199999Y-89100000I249999J0D01*
G01*
X151850001Y-89100000D01*
G75*
G02*
X152100000Y-89349999I0J-249999D01*
G01*
X152100000Y-90650001D01*
G75*
G02*
X151850001Y-90900000I-249999J0D01*
G01*
X151199999Y-90900000D01*
G75*
G02*
X150950000Y-90650001I0J249999D01*
G01*
G37*
%TD*%
%TO.C,C2*%
G36*
G01*
X162900000Y-90650001D02*
X162900000Y-89349999D01*
G75*
G02*
X163149999Y-89100000I249999J0D01*
G01*
X163800001Y-89100000D01*
G75*
G02*
X164050000Y-89349999I0J-249999D01*
G01*
X164050000Y-90650001D01*
G75*
G02*
X163800001Y-90900000I-249999J0D01*
G01*
X163149999Y-90900000D01*
G75*
G02*
X162900000Y-90650001I0J249999D01*
G01*
G37*
G36*
G01*
X159950000Y-90650001D02*
X159950000Y-89349999D01*
G75*
G02*
X160199999Y-89100000I249999J0D01*
G01*
X160850001Y-89100000D01*
G75*
G02*
X161100000Y-89349999I0J-249999D01*
G01*
X161100000Y-90650001D01*
G75*
G02*
X160850001Y-90900000I-249999J0D01*
G01*
X160199999Y-90900000D01*
G75*
G02*
X159950000Y-90650001I0J249999D01*
G01*
G37*
%TD*%
D10*
%TO.C,D12*%
X164450000Y-117600000D03*
X164450000Y-114400000D03*
X159550000Y-117600000D03*
X159550000Y-114400000D03*
%TD*%
%TO.C,D11*%
X155450000Y-117600000D03*
X155450000Y-114400000D03*
X150550000Y-117600000D03*
X150550000Y-114400000D03*
%TD*%
%TO.C,D10*%
X146450000Y-117600000D03*
X146450000Y-114400000D03*
X141550000Y-117600000D03*
X141550000Y-114400000D03*
%TD*%
%TO.C,D9*%
X141550000Y-104400000D03*
X141550000Y-107600000D03*
X146450000Y-104400000D03*
X146450000Y-107600000D03*
%TD*%
%TO.C,D8*%
X150550000Y-104400000D03*
X150550000Y-107600000D03*
X155450000Y-104400000D03*
X155450000Y-107600000D03*
%TD*%
%TO.C,D7*%
X159550000Y-104400000D03*
X159550000Y-107600000D03*
X164450000Y-104400000D03*
X164450000Y-107600000D03*
%TD*%
%TO.C,D6*%
X164450000Y-97600000D03*
X164450000Y-94400000D03*
X159550000Y-97600000D03*
X159550000Y-94400000D03*
%TD*%
%TO.C,D5*%
X155450000Y-97600000D03*
X155450000Y-94400000D03*
X150550000Y-97600000D03*
X150550000Y-94400000D03*
%TD*%
%TO.C,D4*%
X146450000Y-97600000D03*
X146450000Y-94400000D03*
X141550000Y-97600000D03*
X141550000Y-94400000D03*
%TD*%
%TO.C,D3*%
X141550000Y-84400000D03*
X141550000Y-87600000D03*
X146450000Y-84400000D03*
X146450000Y-87600000D03*
%TD*%
%TO.C,D2*%
X150550000Y-84400000D03*
X150550000Y-87600000D03*
X155450000Y-84400000D03*
X155450000Y-87600000D03*
%TD*%
%TO.C,D1*%
X159550000Y-84400000D03*
X159550000Y-87600000D03*
X164450000Y-84400000D03*
X164450000Y-87600000D03*
%TD*%
M02*
