%TF.GenerationSoftware,KiCad,Pcbnew,(5.1.12-1-10_14)*%
%TF.CreationDate,2022-01-26T17:57:44+01:00*%
%TF.ProjectId,tiny-led-esp32,74696e79-2d6c-4656-942d-65737033322e,rev?*%
%TF.SameCoordinates,Original*%
%TF.FileFunction,Copper,L4,Bot*%
%TF.FilePolarity,Positive*%
%FSLAX46Y46*%
G04 Gerber Fmt 4.6, Leading zero omitted, Abs format (unit mm)*
G04 Created by KiCad (PCBNEW (5.1.12-1-10_14)) date 2022-01-26 17:57:44*
%MOMM*%
%LPD*%
G01*
G04 APERTURE LIST*
%TA.AperFunction,SMDPad,CuDef*%
%ADD10R,2.000000X0.900000*%
%TD*%
%TA.AperFunction,SMDPad,CuDef*%
%ADD11R,0.900000X2.000000*%
%TD*%
%TA.AperFunction,SMDPad,CuDef*%
%ADD12R,5.000000X5.000000*%
%TD*%
%TA.AperFunction,SMDPad,CuDef*%
%ADD13C,2.500000*%
%TD*%
%TA.AperFunction,ComponentPad*%
%ADD14C,0.800000*%
%TD*%
%TA.AperFunction,ComponentPad*%
%ADD15C,6.400000*%
%TD*%
%TA.AperFunction,SMDPad,CuDef*%
%ADD16R,1.500000X2.000000*%
%TD*%
%TA.AperFunction,SMDPad,CuDef*%
%ADD17R,3.800000X2.000000*%
%TD*%
%TA.AperFunction,ComponentPad*%
%ADD18O,1.150000X1.800000*%
%TD*%
%TA.AperFunction,ComponentPad*%
%ADD19O,1.450000X2.000000*%
%TD*%
%TA.AperFunction,SMDPad,CuDef*%
%ADD20R,0.450000X1.300000*%
%TD*%
%TA.AperFunction,ViaPad*%
%ADD21C,0.800000*%
%TD*%
%TA.AperFunction,Conductor*%
%ADD22C,0.800000*%
%TD*%
%TA.AperFunction,Conductor*%
%ADD23C,0.250000*%
%TD*%
G04 APERTURE END LIST*
D10*
%TO.P,U2,38*%
%TO.N,GND*%
X144500000Y-84518500D03*
%TO.P,U2,37*%
%TO.N,G23*%
X144500000Y-85788500D03*
%TO.P,U2,36*%
%TO.N,Net-(U2-Pad36)*%
X144500000Y-87058500D03*
%TO.P,U2,35*%
%TO.N,TX*%
X144500000Y-88328500D03*
%TO.P,U2,34*%
%TO.N,RX*%
X144500000Y-89598500D03*
%TO.P,U2,33*%
%TO.N,Net-(U2-Pad33)*%
X144500000Y-90868500D03*
%TO.P,U2,32*%
%TO.N,Net-(U2-Pad32)*%
X144500000Y-92138500D03*
%TO.P,U2,31*%
%TO.N,Net-(U2-Pad31)*%
X144500000Y-93408500D03*
%TO.P,U2,30*%
%TO.N,Net-(U2-Pad30)*%
X144500000Y-94678500D03*
%TO.P,U2,29*%
%TO.N,Net-(U2-Pad29)*%
X144500000Y-95948500D03*
%TO.P,U2,28*%
%TO.N,Net-(U2-Pad28)*%
X144500000Y-97218500D03*
%TO.P,U2,27*%
%TO.N,Net-(U2-Pad27)*%
X144500000Y-98488500D03*
%TO.P,U2,26*%
%TO.N,Net-(U2-Pad26)*%
X144500000Y-99758500D03*
%TO.P,U2,25*%
%TO.N,IO0*%
X144500000Y-101028500D03*
D11*
%TO.P,U2,24*%
%TO.N,Net-(U2-Pad24)*%
X147285000Y-102028500D03*
%TO.P,U2,23*%
%TO.N,Net-(U2-Pad23)*%
X148555000Y-102028500D03*
%TO.P,U2,22*%
%TO.N,Net-(U2-Pad22)*%
X149825000Y-102028500D03*
%TO.P,U2,21*%
%TO.N,Net-(U2-Pad21)*%
X151095000Y-102028500D03*
%TO.P,U2,20*%
%TO.N,Net-(U2-Pad20)*%
X152365000Y-102028500D03*
%TO.P,U2,19*%
%TO.N,Net-(U2-Pad19)*%
X153635000Y-102028500D03*
%TO.P,U2,18*%
%TO.N,Net-(U2-Pad18)*%
X154905000Y-102028500D03*
%TO.P,U2,17*%
%TO.N,Net-(U2-Pad17)*%
X156175000Y-102028500D03*
%TO.P,U2,16*%
%TO.N,Net-(U2-Pad16)*%
X157445000Y-102028500D03*
%TO.P,U2,15*%
%TO.N,GND*%
X158715000Y-102028500D03*
D10*
%TO.P,U2,14*%
%TO.N,Net-(U2-Pad14)*%
X161500000Y-101028500D03*
%TO.P,U2,13*%
%TO.N,Net-(U2-Pad13)*%
X161500000Y-99758500D03*
%TO.P,U2,12*%
%TO.N,Net-(U2-Pad12)*%
X161500000Y-98488500D03*
%TO.P,U2,11*%
%TO.N,Net-(U2-Pad11)*%
X161500000Y-97218500D03*
%TO.P,U2,10*%
%TO.N,Net-(U2-Pad10)*%
X161500000Y-95948500D03*
%TO.P,U2,9*%
%TO.N,Net-(U2-Pad9)*%
X161500000Y-94678500D03*
%TO.P,U2,8*%
%TO.N,Net-(U2-Pad8)*%
X161500000Y-93408500D03*
%TO.P,U2,7*%
%TO.N,Net-(U2-Pad7)*%
X161500000Y-92138500D03*
%TO.P,U2,6*%
%TO.N,Net-(U2-Pad6)*%
X161500000Y-90868500D03*
%TO.P,U2,5*%
%TO.N,Net-(U2-Pad5)*%
X161500000Y-89598500D03*
%TO.P,U2,4*%
%TO.N,Net-(U2-Pad4)*%
X161500000Y-88328500D03*
%TO.P,U2,3*%
%TO.N,EN*%
X161500000Y-87058500D03*
%TO.P,U2,2*%
%TO.N,+3V3*%
X161500000Y-85788500D03*
%TO.P,U2,1*%
%TO.N,GND*%
X161500000Y-84518500D03*
D12*
%TO.P,U2,39*%
X154000000Y-92018500D03*
%TD*%
D13*
%TO.P,TP7,1*%
%TO.N,IO0*%
X141000000Y-91000000D03*
%TD*%
%TO.P,TP2,1*%
%TO.N,GND*%
X164500000Y-99000000D03*
%TD*%
%TO.P,TP1,1*%
%TO.N,EN*%
X164500000Y-95000000D03*
%TD*%
%TO.P,TP4,1*%
%TO.N,TX*%
X141000000Y-95000000D03*
%TD*%
%TO.P,TP3,1*%
%TO.N,RX*%
X141000000Y-99000000D03*
%TD*%
%TO.P,TP5,1*%
%TO.N,+3V3*%
X141000000Y-103000000D03*
%TD*%
%TO.P,TP6,1*%
%TO.N,GND*%
X141000000Y-107000000D03*
%TD*%
D14*
%TO.P,H2,1*%
%TO.N,+5V*%
X165400056Y-123905944D03*
X163703000Y-123203000D03*
X162005944Y-123905944D03*
X161303000Y-125603000D03*
X162005944Y-127300056D03*
X163703000Y-128003000D03*
X165400056Y-127300056D03*
X166103000Y-125603000D03*
D15*
X163703000Y-125603000D03*
%TD*%
D14*
%TO.P,H1,1*%
%TO.N,GND*%
X143505256Y-123905944D03*
X141808200Y-123203000D03*
X140111144Y-123905944D03*
X139408200Y-125603000D03*
X140111144Y-127300056D03*
X141808200Y-128003000D03*
X143505256Y-127300056D03*
X144208200Y-125603000D03*
D15*
X141808200Y-125603000D03*
%TD*%
%TO.P,R3,2*%
%TO.N,+3V3*%
%TA.AperFunction,SMDPad,CuDef*%
G36*
G01*
X165090001Y-85100000D02*
X163839999Y-85100000D01*
G75*
G02*
X163590000Y-84850001I0J249999D01*
G01*
X163590000Y-84224999D01*
G75*
G02*
X163839999Y-83975000I249999J0D01*
G01*
X165090001Y-83975000D01*
G75*
G02*
X165340000Y-84224999I0J-249999D01*
G01*
X165340000Y-84850001D01*
G75*
G02*
X165090001Y-85100000I-249999J0D01*
G01*
G37*
%TD.AperFunction*%
%TO.P,R3,1*%
%TO.N,EN*%
%TA.AperFunction,SMDPad,CuDef*%
G36*
G01*
X165090001Y-88025000D02*
X163839999Y-88025000D01*
G75*
G02*
X163590000Y-87775001I0J249999D01*
G01*
X163590000Y-87149999D01*
G75*
G02*
X163839999Y-86900000I249999J0D01*
G01*
X165090001Y-86900000D01*
G75*
G02*
X165340000Y-87149999I0J-249999D01*
G01*
X165340000Y-87775001D01*
G75*
G02*
X165090001Y-88025000I-249999J0D01*
G01*
G37*
%TD.AperFunction*%
%TD*%
%TO.P,R2,2*%
%TO.N,G23*%
%TA.AperFunction,SMDPad,CuDef*%
G36*
G01*
X140471999Y-86900000D02*
X141722001Y-86900000D01*
G75*
G02*
X141972000Y-87149999I0J-249999D01*
G01*
X141972000Y-87775001D01*
G75*
G02*
X141722001Y-88025000I-249999J0D01*
G01*
X140471999Y-88025000D01*
G75*
G02*
X140222000Y-87775001I0J249999D01*
G01*
X140222000Y-87149999D01*
G75*
G02*
X140471999Y-86900000I249999J0D01*
G01*
G37*
%TD.AperFunction*%
%TO.P,R2,1*%
%TO.N,Net-(D1-Pad4)*%
%TA.AperFunction,SMDPad,CuDef*%
G36*
G01*
X140471999Y-83975000D02*
X141722001Y-83975000D01*
G75*
G02*
X141972000Y-84224999I0J-249999D01*
G01*
X141972000Y-84850001D01*
G75*
G02*
X141722001Y-85100000I-249999J0D01*
G01*
X140471999Y-85100000D01*
G75*
G02*
X140222000Y-84850001I0J249999D01*
G01*
X140222000Y-84224999D01*
G75*
G02*
X140471999Y-83975000I249999J0D01*
G01*
G37*
%TD.AperFunction*%
%TD*%
%TO.P,C14,2*%
%TO.N,GND*%
%TA.AperFunction,SMDPad,CuDef*%
G36*
G01*
X153949500Y-116410501D02*
X153949500Y-115110499D01*
G75*
G02*
X154199499Y-114860500I249999J0D01*
G01*
X154849501Y-114860500D01*
G75*
G02*
X155099500Y-115110499I0J-249999D01*
G01*
X155099500Y-116410501D01*
G75*
G02*
X154849501Y-116660500I-249999J0D01*
G01*
X154199499Y-116660500D01*
G75*
G02*
X153949500Y-116410501I0J249999D01*
G01*
G37*
%TD.AperFunction*%
%TO.P,C14,1*%
%TO.N,+5V*%
%TA.AperFunction,SMDPad,CuDef*%
G36*
G01*
X150999500Y-116410501D02*
X150999500Y-115110499D01*
G75*
G02*
X151249499Y-114860500I249999J0D01*
G01*
X151899501Y-114860500D01*
G75*
G02*
X152149500Y-115110499I0J-249999D01*
G01*
X152149500Y-116410501D01*
G75*
G02*
X151899501Y-116660500I-249999J0D01*
G01*
X151249499Y-116660500D01*
G75*
G02*
X150999500Y-116410501I0J249999D01*
G01*
G37*
%TD.AperFunction*%
%TD*%
%TO.P,C1,2*%
%TO.N,GND*%
%TA.AperFunction,SMDPad,CuDef*%
G36*
G01*
X163814999Y-92164000D02*
X165115001Y-92164000D01*
G75*
G02*
X165365000Y-92413999I0J-249999D01*
G01*
X165365000Y-93064001D01*
G75*
G02*
X165115001Y-93314000I-249999J0D01*
G01*
X163814999Y-93314000D01*
G75*
G02*
X163565000Y-93064001I0J249999D01*
G01*
X163565000Y-92413999D01*
G75*
G02*
X163814999Y-92164000I249999J0D01*
G01*
G37*
%TD.AperFunction*%
%TO.P,C1,1*%
%TO.N,+3V3*%
%TA.AperFunction,SMDPad,CuDef*%
G36*
G01*
X163814999Y-89214000D02*
X165115001Y-89214000D01*
G75*
G02*
X165365000Y-89463999I0J-249999D01*
G01*
X165365000Y-90114001D01*
G75*
G02*
X165115001Y-90364000I-249999J0D01*
G01*
X163814999Y-90364000D01*
G75*
G02*
X163565000Y-90114001I0J249999D01*
G01*
X163565000Y-89463999D01*
G75*
G02*
X163814999Y-89214000I249999J0D01*
G01*
G37*
%TD.AperFunction*%
%TD*%
D16*
%TO.P,U1,1*%
%TO.N,GND*%
X155335000Y-112853000D03*
%TO.P,U1,3*%
%TO.N,+5V*%
X150735000Y-112853000D03*
%TO.P,U1,2*%
%TO.N,+3V3*%
X153035000Y-112853000D03*
D17*
X153035000Y-106553000D03*
%TD*%
D18*
%TO.P,J1,6*%
%TO.N,Net-(J1-Pad6)*%
X149160000Y-127235500D03*
X156910000Y-127235500D03*
D19*
X149310000Y-123435500D03*
X156760000Y-123435500D03*
D20*
%TO.P,J1,5*%
%TO.N,GND*%
X151735000Y-123385500D03*
%TO.P,J1,4*%
%TO.N,Net-(J1-Pad4)*%
X152385000Y-123385500D03*
%TO.P,J1,3*%
%TO.N,Net-(J1-Pad3)*%
X153035000Y-123385500D03*
%TO.P,J1,2*%
%TO.N,Net-(J1-Pad2)*%
X153685000Y-123385500D03*
%TO.P,J1,1*%
%TO.N,+5V*%
X154335000Y-123385500D03*
%TD*%
D21*
%TO.N,+5V*%
X160528000Y-102489000D03*
X149606000Y-112776000D03*
X150050500Y-91630500D03*
X155384500Y-122110500D03*
X149225000Y-121348500D03*
X145732500Y-102489000D03*
X146390000Y-119085000D03*
X164280000Y-119195000D03*
%TO.N,Net-(D1-Pad4)*%
X139509500Y-84455000D03*
%TO.N,GND*%
X156464000Y-112776000D03*
X146748500Y-123444000D03*
X148272500Y-92583000D03*
X146367500Y-90043000D03*
X155384500Y-90043000D03*
X139382500Y-106997500D03*
X150685500Y-122110500D03*
X156718000Y-121348500D03*
X143700500Y-118173500D03*
X161925000Y-117919500D03*
X158686500Y-100520500D03*
X143129000Y-84518500D03*
X162877500Y-84518500D03*
X164465000Y-88519000D03*
X164465000Y-91884500D03*
X165354000Y-100393500D03*
X147450999Y-111975999D03*
%TO.N,+3V3*%
X153035000Y-104267000D03*
X157289500Y-99822000D03*
%TD*%
D22*
%TO.N,+5V*%
X150735000Y-114921000D02*
X151574500Y-115760500D01*
X150735000Y-112853000D02*
X150735000Y-114921000D01*
X151574500Y-118999000D02*
X149225000Y-121348500D01*
X151574500Y-115760500D02*
X151574500Y-118999000D01*
X154510001Y-122984999D02*
X154510001Y-123385500D01*
X155384500Y-122110500D02*
X154510001Y-122984999D01*
X150658000Y-112776000D02*
X150735000Y-112853000D01*
X149606000Y-112776000D02*
X150658000Y-112776000D01*
D23*
%TO.N,Net-(D1-Pad4)*%
X141095000Y-84455000D02*
X141097000Y-84453000D01*
X139509500Y-84455000D02*
X141095000Y-84455000D01*
D22*
%TO.N,GND*%
X154524500Y-115760500D02*
X154524500Y-119155000D01*
X154524500Y-119155000D02*
X156718000Y-121348500D01*
X151559999Y-122984999D02*
X151559999Y-123385500D01*
X150685500Y-122110500D02*
X151559999Y-122984999D01*
X155412000Y-112776000D02*
X155335000Y-112853000D01*
X156464000Y-112776000D02*
X155412000Y-112776000D01*
X158686500Y-102000000D02*
X158715000Y-102028500D01*
X158686500Y-100520500D02*
X158686500Y-102000000D01*
X143129000Y-84518500D02*
X144500000Y-84518500D01*
X162877500Y-84518500D02*
X161500000Y-84518500D01*
X140997500Y-106997500D02*
X141000000Y-107000000D01*
X139382500Y-106997500D02*
X140997500Y-106997500D01*
X164465000Y-91884500D02*
X164465000Y-92739000D01*
X165354000Y-99854000D02*
X164500000Y-99000000D01*
X165354000Y-100393500D02*
X165354000Y-99854000D01*
%TO.N,+3V3*%
X161534500Y-85823000D02*
X161500000Y-85788500D01*
X157289500Y-88199000D02*
X157289500Y-99822000D01*
X159700000Y-85788500D02*
X157289500Y-88199000D01*
X161500000Y-85788500D02*
X159700000Y-85788500D01*
X153035000Y-104267000D02*
X153035000Y-106553000D01*
X153035000Y-106553000D02*
X153035000Y-112853000D01*
X163214000Y-85788500D02*
X161500000Y-85788500D01*
X164465000Y-84537500D02*
X163214000Y-85788500D01*
X164465000Y-84537500D02*
X165690500Y-84537500D01*
X165690500Y-84537500D02*
X166116000Y-84963000D01*
X142267000Y-104267000D02*
X141000000Y-103000000D01*
X153035000Y-104267000D02*
X142267000Y-104267000D01*
X164465000Y-89789000D02*
X164846000Y-89789000D01*
X164846000Y-89789000D02*
X166116000Y-88519000D01*
X166116000Y-84963000D02*
X166116000Y-88519000D01*
D23*
%TO.N,G23*%
X142686500Y-85788500D02*
X144500000Y-85788500D01*
X141097000Y-87378000D02*
X142686500Y-85788500D01*
%TO.N,TX*%
X143671500Y-88328500D02*
X144500000Y-88328500D01*
X143250000Y-88328500D02*
X144500000Y-88328500D01*
X142575001Y-89003499D02*
X143250000Y-88328500D01*
X142575001Y-93424999D02*
X142575001Y-89003499D01*
X141000000Y-95000000D02*
X142575001Y-93424999D01*
%TO.N,RX*%
X143734998Y-89598500D02*
X144500000Y-89598500D01*
X143174999Y-96825001D02*
X143174999Y-90158499D01*
X143174999Y-90158499D02*
X143734998Y-89598500D01*
X141000000Y-99000000D02*
X143174999Y-96825001D01*
%TO.N,EN*%
X162750500Y-87058500D02*
X161500000Y-87058500D01*
X162750500Y-87058500D02*
X163068000Y-87376000D01*
X163154500Y-87462500D02*
X162750500Y-87058500D01*
X164465000Y-87462500D02*
X163154500Y-87462500D01*
X163068000Y-93318000D02*
X163068000Y-93091000D01*
X163068000Y-87376000D02*
X163068000Y-93091000D01*
X163068000Y-93568000D02*
X163068000Y-93091000D01*
X164500000Y-95000000D02*
X163068000Y-93568000D01*
%TO.N,IO0*%
X139424999Y-92575001D02*
X141000000Y-91000000D01*
X139424999Y-99756001D02*
X139424999Y-92575001D01*
X140697498Y-101028500D02*
X139424999Y-99756001D01*
X144500000Y-101028500D02*
X140697498Y-101028500D01*
%TD*%
M02*
