%TF.GenerationSoftware,KiCad,Pcbnew,(5.1.12-1-10_14)*%
%TF.CreationDate,2022-01-26T17:57:44+01:00*%
%TF.ProjectId,tiny-led-esp32,74696e79-2d6c-4656-942d-65737033322e,rev?*%
%TF.SameCoordinates,Original*%
%TF.FileFunction,Legend,Top*%
%TF.FilePolarity,Positive*%
%FSLAX46Y46*%
G04 Gerber Fmt 4.6, Leading zero omitted, Abs format (unit mm)*
G04 Created by KiCad (PCBNEW (5.1.12-1-10_14)) date 2022-01-26 17:57:44*
%MOMM*%
%LPD*%
G01*
G04 APERTURE LIST*
%ADD10C,0.150000*%
%ADD11C,0.120000*%
G04 APERTURE END LIST*
D10*
X144876261Y-79224214D02*
X145257214Y-79224214D01*
X145019119Y-78890880D02*
X145019119Y-79748023D01*
X145066738Y-79843261D01*
X145161976Y-79890880D01*
X145257214Y-79890880D01*
X145590547Y-79890880D02*
X145590547Y-79224214D01*
X145590547Y-78890880D02*
X145542928Y-78938500D01*
X145590547Y-78986119D01*
X145638166Y-78938500D01*
X145590547Y-78890880D01*
X145590547Y-78986119D01*
X146066738Y-79224214D02*
X146066738Y-79890880D01*
X146066738Y-79319452D02*
X146114357Y-79271833D01*
X146209595Y-79224214D01*
X146352452Y-79224214D01*
X146447690Y-79271833D01*
X146495309Y-79367071D01*
X146495309Y-79890880D01*
X146876261Y-79224214D02*
X147114357Y-79890880D01*
X147352452Y-79224214D02*
X147114357Y-79890880D01*
X147019119Y-80128976D01*
X146971500Y-80176595D01*
X146876261Y-80224214D01*
X147733404Y-79509928D02*
X148495309Y-79509928D01*
X149114357Y-79890880D02*
X149019119Y-79843261D01*
X148971500Y-79748023D01*
X148971500Y-78890880D01*
X149876261Y-79843261D02*
X149781023Y-79890880D01*
X149590547Y-79890880D01*
X149495309Y-79843261D01*
X149447690Y-79748023D01*
X149447690Y-79367071D01*
X149495309Y-79271833D01*
X149590547Y-79224214D01*
X149781023Y-79224214D01*
X149876261Y-79271833D01*
X149923880Y-79367071D01*
X149923880Y-79462309D01*
X149447690Y-79557547D01*
X150781023Y-79890880D02*
X150781023Y-78890880D01*
X150781023Y-79843261D02*
X150685785Y-79890880D01*
X150495309Y-79890880D01*
X150400071Y-79843261D01*
X150352452Y-79795642D01*
X150304833Y-79700404D01*
X150304833Y-79414690D01*
X150352452Y-79319452D01*
X150400071Y-79271833D01*
X150495309Y-79224214D01*
X150685785Y-79224214D01*
X150781023Y-79271833D01*
X151257214Y-79509928D02*
X152019119Y-79509928D01*
X152876261Y-79843261D02*
X152781023Y-79890880D01*
X152590547Y-79890880D01*
X152495309Y-79843261D01*
X152447690Y-79748023D01*
X152447690Y-79367071D01*
X152495309Y-79271833D01*
X152590547Y-79224214D01*
X152781023Y-79224214D01*
X152876261Y-79271833D01*
X152923880Y-79367071D01*
X152923880Y-79462309D01*
X152447690Y-79557547D01*
X153304833Y-79843261D02*
X153400071Y-79890880D01*
X153590547Y-79890880D01*
X153685785Y-79843261D01*
X153733404Y-79748023D01*
X153733404Y-79700404D01*
X153685785Y-79605166D01*
X153590547Y-79557547D01*
X153447690Y-79557547D01*
X153352452Y-79509928D01*
X153304833Y-79414690D01*
X153304833Y-79367071D01*
X153352452Y-79271833D01*
X153447690Y-79224214D01*
X153590547Y-79224214D01*
X153685785Y-79271833D01*
X154161976Y-79224214D02*
X154161976Y-80224214D01*
X154161976Y-79271833D02*
X154257214Y-79224214D01*
X154447690Y-79224214D01*
X154542928Y-79271833D01*
X154590547Y-79319452D01*
X154638166Y-79414690D01*
X154638166Y-79700404D01*
X154590547Y-79795642D01*
X154542928Y-79843261D01*
X154447690Y-79890880D01*
X154257214Y-79890880D01*
X154161976Y-79843261D01*
X154971500Y-78890880D02*
X155590547Y-78890880D01*
X155257214Y-79271833D01*
X155400071Y-79271833D01*
X155495309Y-79319452D01*
X155542928Y-79367071D01*
X155590547Y-79462309D01*
X155590547Y-79700404D01*
X155542928Y-79795642D01*
X155495309Y-79843261D01*
X155400071Y-79890880D01*
X155114357Y-79890880D01*
X155019119Y-79843261D01*
X154971500Y-79795642D01*
X155971500Y-78986119D02*
X156019119Y-78938500D01*
X156114357Y-78890880D01*
X156352452Y-78890880D01*
X156447690Y-78938500D01*
X156495309Y-78986119D01*
X156542928Y-79081357D01*
X156542928Y-79176595D01*
X156495309Y-79319452D01*
X155923880Y-79890880D01*
X156542928Y-79890880D01*
X157590547Y-79414690D02*
X157542928Y-79367071D01*
X157447690Y-79319452D01*
X157352452Y-79319452D01*
X157257214Y-79367071D01*
X157209595Y-79414690D01*
X157161976Y-79509928D01*
X157161976Y-79605166D01*
X157209595Y-79700404D01*
X157257214Y-79748023D01*
X157352452Y-79795642D01*
X157447690Y-79795642D01*
X157542928Y-79748023D01*
X157590547Y-79700404D01*
X157590547Y-79319452D02*
X157590547Y-79700404D01*
X157638166Y-79748023D01*
X157685785Y-79748023D01*
X157781023Y-79700404D01*
X157828642Y-79605166D01*
X157828642Y-79367071D01*
X157733404Y-79224214D01*
X157590547Y-79128976D01*
X157400071Y-79081357D01*
X157209595Y-79128976D01*
X157066738Y-79224214D01*
X156971500Y-79367071D01*
X156923880Y-79557547D01*
X156971500Y-79748023D01*
X157066738Y-79890880D01*
X157209595Y-79986119D01*
X157400071Y-80033738D01*
X157590547Y-79986119D01*
X157733404Y-79890880D01*
X158161976Y-79224214D02*
X158400071Y-79890880D01*
X158638166Y-79224214D01*
X159209595Y-78890880D02*
X159304833Y-78890880D01*
X159400071Y-78938500D01*
X159447690Y-78986119D01*
X159495309Y-79081357D01*
X159542928Y-79271833D01*
X159542928Y-79509928D01*
X159495309Y-79700404D01*
X159447690Y-79795642D01*
X159400071Y-79843261D01*
X159304833Y-79890880D01*
X159209595Y-79890880D01*
X159114357Y-79843261D01*
X159066738Y-79795642D01*
X159019119Y-79700404D01*
X158971500Y-79509928D01*
X158971500Y-79271833D01*
X159019119Y-79081357D01*
X159066738Y-78986119D01*
X159114357Y-78938500D01*
X159209595Y-78890880D01*
X159971500Y-79795642D02*
X160019119Y-79843261D01*
X159971500Y-79890880D01*
X159923880Y-79843261D01*
X159971500Y-79795642D01*
X159971500Y-79890880D01*
X160971500Y-79890880D02*
X160400071Y-79890880D01*
X160685785Y-79890880D02*
X160685785Y-78890880D01*
X160590547Y-79033738D01*
X160495309Y-79128976D01*
X160400071Y-79176595D01*
D11*
%TO.C,R1*%
X145838500Y-126459064D02*
X145838500Y-125004936D01*
X147658500Y-126459064D02*
X147658500Y-125004936D01*
%TO.C,C13*%
X162711252Y-120910000D02*
X161288748Y-120910000D01*
X162711252Y-119090000D02*
X161288748Y-119090000D01*
%TO.C,C12*%
X153711252Y-120910000D02*
X152288748Y-120910000D01*
X153711252Y-119090000D02*
X152288748Y-119090000D01*
%TO.C,C11*%
X144711252Y-120910000D02*
X143288748Y-120910000D01*
X144711252Y-119090000D02*
X143288748Y-119090000D01*
%TO.C,C10*%
X143288748Y-109090000D02*
X144711252Y-109090000D01*
X143288748Y-110910000D02*
X144711252Y-110910000D01*
%TO.C,C9*%
X152288748Y-109090000D02*
X153711252Y-109090000D01*
X152288748Y-110910000D02*
X153711252Y-110910000D01*
%TO.C,C8*%
X161288748Y-109090000D02*
X162711252Y-109090000D01*
X161288748Y-110910000D02*
X162711252Y-110910000D01*
%TO.C,C7*%
X162711252Y-100910000D02*
X161288748Y-100910000D01*
X162711252Y-99090000D02*
X161288748Y-99090000D01*
%TO.C,C6*%
X153711252Y-100910000D02*
X152288748Y-100910000D01*
X153711252Y-99090000D02*
X152288748Y-99090000D01*
%TO.C,C5*%
X144711252Y-100910000D02*
X143288748Y-100910000D01*
X144711252Y-99090000D02*
X143288748Y-99090000D01*
%TO.C,C4*%
X143288748Y-89090000D02*
X144711252Y-89090000D01*
X143288748Y-90910000D02*
X144711252Y-90910000D01*
%TO.C,C3*%
X152288748Y-89090000D02*
X153711252Y-89090000D01*
X152288748Y-90910000D02*
X153711252Y-90910000D01*
%TO.C,C2*%
X161288748Y-89090000D02*
X162711252Y-89090000D01*
X161288748Y-90910000D02*
X162711252Y-90910000D01*
%TO.C,D12*%
X165650000Y-118750000D02*
X158350000Y-118750000D01*
X165650000Y-113250000D02*
X158350000Y-113250000D01*
X158350000Y-113250000D02*
X158350000Y-114400000D01*
%TO.C,D11*%
X156650000Y-118750000D02*
X149350000Y-118750000D01*
X156650000Y-113250000D02*
X149350000Y-113250000D01*
X149350000Y-113250000D02*
X149350000Y-114400000D01*
%TO.C,D10*%
X147650000Y-118750000D02*
X140350000Y-118750000D01*
X147650000Y-113250000D02*
X140350000Y-113250000D01*
X140350000Y-113250000D02*
X140350000Y-114400000D01*
%TO.C,D9*%
X140350000Y-103250000D02*
X147650000Y-103250000D01*
X140350000Y-108750000D02*
X147650000Y-108750000D01*
X147650000Y-108750000D02*
X147650000Y-107600000D01*
%TO.C,D8*%
X149350000Y-103250000D02*
X156650000Y-103250000D01*
X149350000Y-108750000D02*
X156650000Y-108750000D01*
X156650000Y-108750000D02*
X156650000Y-107600000D01*
%TO.C,D7*%
X158350000Y-103250000D02*
X165650000Y-103250000D01*
X158350000Y-108750000D02*
X165650000Y-108750000D01*
X165650000Y-108750000D02*
X165650000Y-107600000D01*
%TO.C,D6*%
X165650000Y-98750000D02*
X158350000Y-98750000D01*
X165650000Y-93250000D02*
X158350000Y-93250000D01*
X158350000Y-93250000D02*
X158350000Y-94400000D01*
%TO.C,D5*%
X156650000Y-98750000D02*
X149350000Y-98750000D01*
X156650000Y-93250000D02*
X149350000Y-93250000D01*
X149350000Y-93250000D02*
X149350000Y-94400000D01*
%TO.C,D4*%
X147650000Y-98750000D02*
X140350000Y-98750000D01*
X147650000Y-93250000D02*
X140350000Y-93250000D01*
X140350000Y-93250000D02*
X140350000Y-94400000D01*
%TO.C,D3*%
X140350000Y-83250000D02*
X147650000Y-83250000D01*
X140350000Y-88750000D02*
X147650000Y-88750000D01*
X147650000Y-88750000D02*
X147650000Y-87600000D01*
%TO.C,D2*%
X149350000Y-83250000D02*
X156650000Y-83250000D01*
X149350000Y-88750000D02*
X156650000Y-88750000D01*
X156650000Y-88750000D02*
X156650000Y-87600000D01*
%TO.C,D1*%
X158350000Y-83250000D02*
X165650000Y-83250000D01*
X158350000Y-88750000D02*
X165650000Y-88750000D01*
X165650000Y-88750000D02*
X165650000Y-87600000D01*
%TO.C,R1*%
D10*
X146581833Y-126245880D02*
X146248500Y-125769690D01*
X146010404Y-126245880D02*
X146010404Y-125245880D01*
X146391357Y-125245880D01*
X146486595Y-125293500D01*
X146534214Y-125341119D01*
X146581833Y-125436357D01*
X146581833Y-125579214D01*
X146534214Y-125674452D01*
X146486595Y-125722071D01*
X146391357Y-125769690D01*
X146010404Y-125769690D01*
X147534214Y-126245880D02*
X146962785Y-126245880D01*
X147248500Y-126245880D02*
X147248500Y-125245880D01*
X147153261Y-125388738D01*
X147058023Y-125483976D01*
X146962785Y-125531595D01*
%TO.C,C13*%
X161282142Y-118467142D02*
X161234523Y-118514761D01*
X161091666Y-118562380D01*
X160996428Y-118562380D01*
X160853571Y-118514761D01*
X160758333Y-118419523D01*
X160710714Y-118324285D01*
X160663095Y-118133809D01*
X160663095Y-117990952D01*
X160710714Y-117800476D01*
X160758333Y-117705238D01*
X160853571Y-117610000D01*
X160996428Y-117562380D01*
X161091666Y-117562380D01*
X161234523Y-117610000D01*
X161282142Y-117657619D01*
X162234523Y-118562380D02*
X161663095Y-118562380D01*
X161948809Y-118562380D02*
X161948809Y-117562380D01*
X161853571Y-117705238D01*
X161758333Y-117800476D01*
X161663095Y-117848095D01*
X162567857Y-117562380D02*
X163186904Y-117562380D01*
X162853571Y-117943333D01*
X162996428Y-117943333D01*
X163091666Y-117990952D01*
X163139285Y-118038571D01*
X163186904Y-118133809D01*
X163186904Y-118371904D01*
X163139285Y-118467142D01*
X163091666Y-118514761D01*
X162996428Y-118562380D01*
X162710714Y-118562380D01*
X162615476Y-118514761D01*
X162567857Y-118467142D01*
%TO.C,C12*%
X152392142Y-118467142D02*
X152344523Y-118514761D01*
X152201666Y-118562380D01*
X152106428Y-118562380D01*
X151963571Y-118514761D01*
X151868333Y-118419523D01*
X151820714Y-118324285D01*
X151773095Y-118133809D01*
X151773095Y-117990952D01*
X151820714Y-117800476D01*
X151868333Y-117705238D01*
X151963571Y-117610000D01*
X152106428Y-117562380D01*
X152201666Y-117562380D01*
X152344523Y-117610000D01*
X152392142Y-117657619D01*
X153344523Y-118562380D02*
X152773095Y-118562380D01*
X153058809Y-118562380D02*
X153058809Y-117562380D01*
X152963571Y-117705238D01*
X152868333Y-117800476D01*
X152773095Y-117848095D01*
X153725476Y-117657619D02*
X153773095Y-117610000D01*
X153868333Y-117562380D01*
X154106428Y-117562380D01*
X154201666Y-117610000D01*
X154249285Y-117657619D01*
X154296904Y-117752857D01*
X154296904Y-117848095D01*
X154249285Y-117990952D01*
X153677857Y-118562380D01*
X154296904Y-118562380D01*
%TO.C,C11*%
X143357142Y-118467142D02*
X143309523Y-118514761D01*
X143166666Y-118562380D01*
X143071428Y-118562380D01*
X142928571Y-118514761D01*
X142833333Y-118419523D01*
X142785714Y-118324285D01*
X142738095Y-118133809D01*
X142738095Y-117990952D01*
X142785714Y-117800476D01*
X142833333Y-117705238D01*
X142928571Y-117610000D01*
X143071428Y-117562380D01*
X143166666Y-117562380D01*
X143309523Y-117610000D01*
X143357142Y-117657619D01*
X144309523Y-118562380D02*
X143738095Y-118562380D01*
X144023809Y-118562380D02*
X144023809Y-117562380D01*
X143928571Y-117705238D01*
X143833333Y-117800476D01*
X143738095Y-117848095D01*
X145261904Y-118562380D02*
X144690476Y-118562380D01*
X144976190Y-118562380D02*
X144976190Y-117562380D01*
X144880952Y-117705238D01*
X144785714Y-117800476D01*
X144690476Y-117848095D01*
%TO.C,C10*%
X143357142Y-108507142D02*
X143309523Y-108554761D01*
X143166666Y-108602380D01*
X143071428Y-108602380D01*
X142928571Y-108554761D01*
X142833333Y-108459523D01*
X142785714Y-108364285D01*
X142738095Y-108173809D01*
X142738095Y-108030952D01*
X142785714Y-107840476D01*
X142833333Y-107745238D01*
X142928571Y-107650000D01*
X143071428Y-107602380D01*
X143166666Y-107602380D01*
X143309523Y-107650000D01*
X143357142Y-107697619D01*
X144309523Y-108602380D02*
X143738095Y-108602380D01*
X144023809Y-108602380D02*
X144023809Y-107602380D01*
X143928571Y-107745238D01*
X143833333Y-107840476D01*
X143738095Y-107888095D01*
X144928571Y-107602380D02*
X145023809Y-107602380D01*
X145119047Y-107650000D01*
X145166666Y-107697619D01*
X145214285Y-107792857D01*
X145261904Y-107983333D01*
X145261904Y-108221428D01*
X145214285Y-108411904D01*
X145166666Y-108507142D01*
X145119047Y-108554761D01*
X145023809Y-108602380D01*
X144928571Y-108602380D01*
X144833333Y-108554761D01*
X144785714Y-108507142D01*
X144738095Y-108411904D01*
X144690476Y-108221428D01*
X144690476Y-107983333D01*
X144738095Y-107792857D01*
X144785714Y-107697619D01*
X144833333Y-107650000D01*
X144928571Y-107602380D01*
%TO.C,C9*%
X152833333Y-108507142D02*
X152785714Y-108554761D01*
X152642857Y-108602380D01*
X152547619Y-108602380D01*
X152404761Y-108554761D01*
X152309523Y-108459523D01*
X152261904Y-108364285D01*
X152214285Y-108173809D01*
X152214285Y-108030952D01*
X152261904Y-107840476D01*
X152309523Y-107745238D01*
X152404761Y-107650000D01*
X152547619Y-107602380D01*
X152642857Y-107602380D01*
X152785714Y-107650000D01*
X152833333Y-107697619D01*
X153309523Y-108602380D02*
X153500000Y-108602380D01*
X153595238Y-108554761D01*
X153642857Y-108507142D01*
X153738095Y-108364285D01*
X153785714Y-108173809D01*
X153785714Y-107792857D01*
X153738095Y-107697619D01*
X153690476Y-107650000D01*
X153595238Y-107602380D01*
X153404761Y-107602380D01*
X153309523Y-107650000D01*
X153261904Y-107697619D01*
X153214285Y-107792857D01*
X153214285Y-108030952D01*
X153261904Y-108126190D01*
X153309523Y-108173809D01*
X153404761Y-108221428D01*
X153595238Y-108221428D01*
X153690476Y-108173809D01*
X153738095Y-108126190D01*
X153785714Y-108030952D01*
%TO.C,C8*%
X161833333Y-108507142D02*
X161785714Y-108554761D01*
X161642857Y-108602380D01*
X161547619Y-108602380D01*
X161404761Y-108554761D01*
X161309523Y-108459523D01*
X161261904Y-108364285D01*
X161214285Y-108173809D01*
X161214285Y-108030952D01*
X161261904Y-107840476D01*
X161309523Y-107745238D01*
X161404761Y-107650000D01*
X161547619Y-107602380D01*
X161642857Y-107602380D01*
X161785714Y-107650000D01*
X161833333Y-107697619D01*
X162404761Y-108030952D02*
X162309523Y-107983333D01*
X162261904Y-107935714D01*
X162214285Y-107840476D01*
X162214285Y-107792857D01*
X162261904Y-107697619D01*
X162309523Y-107650000D01*
X162404761Y-107602380D01*
X162595238Y-107602380D01*
X162690476Y-107650000D01*
X162738095Y-107697619D01*
X162785714Y-107792857D01*
X162785714Y-107840476D01*
X162738095Y-107935714D01*
X162690476Y-107983333D01*
X162595238Y-108030952D01*
X162404761Y-108030952D01*
X162309523Y-108078571D01*
X162261904Y-108126190D01*
X162214285Y-108221428D01*
X162214285Y-108411904D01*
X162261904Y-108507142D01*
X162309523Y-108554761D01*
X162404761Y-108602380D01*
X162595238Y-108602380D01*
X162690476Y-108554761D01*
X162738095Y-108507142D01*
X162785714Y-108411904D01*
X162785714Y-108221428D01*
X162738095Y-108126190D01*
X162690476Y-108078571D01*
X162595238Y-108030952D01*
%TO.C,C7*%
X161833333Y-98147142D02*
X161785714Y-98194761D01*
X161642857Y-98242380D01*
X161547619Y-98242380D01*
X161404761Y-98194761D01*
X161309523Y-98099523D01*
X161261904Y-98004285D01*
X161214285Y-97813809D01*
X161214285Y-97670952D01*
X161261904Y-97480476D01*
X161309523Y-97385238D01*
X161404761Y-97290000D01*
X161547619Y-97242380D01*
X161642857Y-97242380D01*
X161785714Y-97290000D01*
X161833333Y-97337619D01*
X162166666Y-97242380D02*
X162833333Y-97242380D01*
X162404761Y-98242380D01*
%TO.C,C6*%
X152833333Y-98147142D02*
X152785714Y-98194761D01*
X152642857Y-98242380D01*
X152547619Y-98242380D01*
X152404761Y-98194761D01*
X152309523Y-98099523D01*
X152261904Y-98004285D01*
X152214285Y-97813809D01*
X152214285Y-97670952D01*
X152261904Y-97480476D01*
X152309523Y-97385238D01*
X152404761Y-97290000D01*
X152547619Y-97242380D01*
X152642857Y-97242380D01*
X152785714Y-97290000D01*
X152833333Y-97337619D01*
X153690476Y-97242380D02*
X153500000Y-97242380D01*
X153404761Y-97290000D01*
X153357142Y-97337619D01*
X153261904Y-97480476D01*
X153214285Y-97670952D01*
X153214285Y-98051904D01*
X153261904Y-98147142D01*
X153309523Y-98194761D01*
X153404761Y-98242380D01*
X153595238Y-98242380D01*
X153690476Y-98194761D01*
X153738095Y-98147142D01*
X153785714Y-98051904D01*
X153785714Y-97813809D01*
X153738095Y-97718571D01*
X153690476Y-97670952D01*
X153595238Y-97623333D01*
X153404761Y-97623333D01*
X153309523Y-97670952D01*
X153261904Y-97718571D01*
X153214285Y-97813809D01*
%TO.C,C5*%
X143833333Y-98147142D02*
X143785714Y-98194761D01*
X143642857Y-98242380D01*
X143547619Y-98242380D01*
X143404761Y-98194761D01*
X143309523Y-98099523D01*
X143261904Y-98004285D01*
X143214285Y-97813809D01*
X143214285Y-97670952D01*
X143261904Y-97480476D01*
X143309523Y-97385238D01*
X143404761Y-97290000D01*
X143547619Y-97242380D01*
X143642857Y-97242380D01*
X143785714Y-97290000D01*
X143833333Y-97337619D01*
X144738095Y-97242380D02*
X144261904Y-97242380D01*
X144214285Y-97718571D01*
X144261904Y-97670952D01*
X144357142Y-97623333D01*
X144595238Y-97623333D01*
X144690476Y-97670952D01*
X144738095Y-97718571D01*
X144785714Y-97813809D01*
X144785714Y-98051904D01*
X144738095Y-98147142D01*
X144690476Y-98194761D01*
X144595238Y-98242380D01*
X144357142Y-98242380D01*
X144261904Y-98194761D01*
X144214285Y-98147142D01*
%TO.C,C4*%
X143833333Y-88507142D02*
X143785714Y-88554761D01*
X143642857Y-88602380D01*
X143547619Y-88602380D01*
X143404761Y-88554761D01*
X143309523Y-88459523D01*
X143261904Y-88364285D01*
X143214285Y-88173809D01*
X143214285Y-88030952D01*
X143261904Y-87840476D01*
X143309523Y-87745238D01*
X143404761Y-87650000D01*
X143547619Y-87602380D01*
X143642857Y-87602380D01*
X143785714Y-87650000D01*
X143833333Y-87697619D01*
X144690476Y-87935714D02*
X144690476Y-88602380D01*
X144452380Y-87554761D02*
X144214285Y-88269047D01*
X144833333Y-88269047D01*
%TO.C,C3*%
X152833333Y-88507142D02*
X152785714Y-88554761D01*
X152642857Y-88602380D01*
X152547619Y-88602380D01*
X152404761Y-88554761D01*
X152309523Y-88459523D01*
X152261904Y-88364285D01*
X152214285Y-88173809D01*
X152214285Y-88030952D01*
X152261904Y-87840476D01*
X152309523Y-87745238D01*
X152404761Y-87650000D01*
X152547619Y-87602380D01*
X152642857Y-87602380D01*
X152785714Y-87650000D01*
X152833333Y-87697619D01*
X153166666Y-87602380D02*
X153785714Y-87602380D01*
X153452380Y-87983333D01*
X153595238Y-87983333D01*
X153690476Y-88030952D01*
X153738095Y-88078571D01*
X153785714Y-88173809D01*
X153785714Y-88411904D01*
X153738095Y-88507142D01*
X153690476Y-88554761D01*
X153595238Y-88602380D01*
X153309523Y-88602380D01*
X153214285Y-88554761D01*
X153166666Y-88507142D01*
%TO.C,C2*%
X161833333Y-88507142D02*
X161785714Y-88554761D01*
X161642857Y-88602380D01*
X161547619Y-88602380D01*
X161404761Y-88554761D01*
X161309523Y-88459523D01*
X161261904Y-88364285D01*
X161214285Y-88173809D01*
X161214285Y-88030952D01*
X161261904Y-87840476D01*
X161309523Y-87745238D01*
X161404761Y-87650000D01*
X161547619Y-87602380D01*
X161642857Y-87602380D01*
X161785714Y-87650000D01*
X161833333Y-87697619D01*
X162214285Y-87697619D02*
X162261904Y-87650000D01*
X162357142Y-87602380D01*
X162595238Y-87602380D01*
X162690476Y-87650000D01*
X162738095Y-87697619D01*
X162785714Y-87792857D01*
X162785714Y-87888095D01*
X162738095Y-88030952D01*
X162166666Y-88602380D01*
X162785714Y-88602380D01*
%TO.C,D12*%
X160785714Y-112847380D02*
X160785714Y-111847380D01*
X161023809Y-111847380D01*
X161166666Y-111895000D01*
X161261904Y-111990238D01*
X161309523Y-112085476D01*
X161357142Y-112275952D01*
X161357142Y-112418809D01*
X161309523Y-112609285D01*
X161261904Y-112704523D01*
X161166666Y-112799761D01*
X161023809Y-112847380D01*
X160785714Y-112847380D01*
X162309523Y-112847380D02*
X161738095Y-112847380D01*
X162023809Y-112847380D02*
X162023809Y-111847380D01*
X161928571Y-111990238D01*
X161833333Y-112085476D01*
X161738095Y-112133095D01*
X162690476Y-111942619D02*
X162738095Y-111895000D01*
X162833333Y-111847380D01*
X163071428Y-111847380D01*
X163166666Y-111895000D01*
X163214285Y-111942619D01*
X163261904Y-112037857D01*
X163261904Y-112133095D01*
X163214285Y-112275952D01*
X162642857Y-112847380D01*
X163261904Y-112847380D01*
%TO.C,D11*%
X151785714Y-112847380D02*
X151785714Y-111847380D01*
X152023809Y-111847380D01*
X152166666Y-111895000D01*
X152261904Y-111990238D01*
X152309523Y-112085476D01*
X152357142Y-112275952D01*
X152357142Y-112418809D01*
X152309523Y-112609285D01*
X152261904Y-112704523D01*
X152166666Y-112799761D01*
X152023809Y-112847380D01*
X151785714Y-112847380D01*
X153309523Y-112847380D02*
X152738095Y-112847380D01*
X153023809Y-112847380D02*
X153023809Y-111847380D01*
X152928571Y-111990238D01*
X152833333Y-112085476D01*
X152738095Y-112133095D01*
X154261904Y-112847380D02*
X153690476Y-112847380D01*
X153976190Y-112847380D02*
X153976190Y-111847380D01*
X153880952Y-111990238D01*
X153785714Y-112085476D01*
X153690476Y-112133095D01*
%TO.C,D10*%
X142785714Y-112847380D02*
X142785714Y-111847380D01*
X143023809Y-111847380D01*
X143166666Y-111895000D01*
X143261904Y-111990238D01*
X143309523Y-112085476D01*
X143357142Y-112275952D01*
X143357142Y-112418809D01*
X143309523Y-112609285D01*
X143261904Y-112704523D01*
X143166666Y-112799761D01*
X143023809Y-112847380D01*
X142785714Y-112847380D01*
X144309523Y-112847380D02*
X143738095Y-112847380D01*
X144023809Y-112847380D02*
X144023809Y-111847380D01*
X143928571Y-111990238D01*
X143833333Y-112085476D01*
X143738095Y-112133095D01*
X144928571Y-111847380D02*
X145023809Y-111847380D01*
X145119047Y-111895000D01*
X145166666Y-111942619D01*
X145214285Y-112037857D01*
X145261904Y-112228333D01*
X145261904Y-112466428D01*
X145214285Y-112656904D01*
X145166666Y-112752142D01*
X145119047Y-112799761D01*
X145023809Y-112847380D01*
X144928571Y-112847380D01*
X144833333Y-112799761D01*
X144785714Y-112752142D01*
X144738095Y-112656904D01*
X144690476Y-112466428D01*
X144690476Y-112228333D01*
X144738095Y-112037857D01*
X144785714Y-111942619D01*
X144833333Y-111895000D01*
X144928571Y-111847380D01*
%TO.C,D9*%
X143261904Y-102952380D02*
X143261904Y-101952380D01*
X143500000Y-101952380D01*
X143642857Y-102000000D01*
X143738095Y-102095238D01*
X143785714Y-102190476D01*
X143833333Y-102380952D01*
X143833333Y-102523809D01*
X143785714Y-102714285D01*
X143738095Y-102809523D01*
X143642857Y-102904761D01*
X143500000Y-102952380D01*
X143261904Y-102952380D01*
X144309523Y-102952380D02*
X144500000Y-102952380D01*
X144595238Y-102904761D01*
X144642857Y-102857142D01*
X144738095Y-102714285D01*
X144785714Y-102523809D01*
X144785714Y-102142857D01*
X144738095Y-102047619D01*
X144690476Y-102000000D01*
X144595238Y-101952380D01*
X144404761Y-101952380D01*
X144309523Y-102000000D01*
X144261904Y-102047619D01*
X144214285Y-102142857D01*
X144214285Y-102380952D01*
X144261904Y-102476190D01*
X144309523Y-102523809D01*
X144404761Y-102571428D01*
X144595238Y-102571428D01*
X144690476Y-102523809D01*
X144738095Y-102476190D01*
X144785714Y-102380952D01*
%TO.C,D8*%
X152261904Y-102952380D02*
X152261904Y-101952380D01*
X152500000Y-101952380D01*
X152642857Y-102000000D01*
X152738095Y-102095238D01*
X152785714Y-102190476D01*
X152833333Y-102380952D01*
X152833333Y-102523809D01*
X152785714Y-102714285D01*
X152738095Y-102809523D01*
X152642857Y-102904761D01*
X152500000Y-102952380D01*
X152261904Y-102952380D01*
X153404761Y-102380952D02*
X153309523Y-102333333D01*
X153261904Y-102285714D01*
X153214285Y-102190476D01*
X153214285Y-102142857D01*
X153261904Y-102047619D01*
X153309523Y-102000000D01*
X153404761Y-101952380D01*
X153595238Y-101952380D01*
X153690476Y-102000000D01*
X153738095Y-102047619D01*
X153785714Y-102142857D01*
X153785714Y-102190476D01*
X153738095Y-102285714D01*
X153690476Y-102333333D01*
X153595238Y-102380952D01*
X153404761Y-102380952D01*
X153309523Y-102428571D01*
X153261904Y-102476190D01*
X153214285Y-102571428D01*
X153214285Y-102761904D01*
X153261904Y-102857142D01*
X153309523Y-102904761D01*
X153404761Y-102952380D01*
X153595238Y-102952380D01*
X153690476Y-102904761D01*
X153738095Y-102857142D01*
X153785714Y-102761904D01*
X153785714Y-102571428D01*
X153738095Y-102476190D01*
X153690476Y-102428571D01*
X153595238Y-102380952D01*
%TO.C,D7*%
X161261904Y-102952380D02*
X161261904Y-101952380D01*
X161500000Y-101952380D01*
X161642857Y-102000000D01*
X161738095Y-102095238D01*
X161785714Y-102190476D01*
X161833333Y-102380952D01*
X161833333Y-102523809D01*
X161785714Y-102714285D01*
X161738095Y-102809523D01*
X161642857Y-102904761D01*
X161500000Y-102952380D01*
X161261904Y-102952380D01*
X162166666Y-101952380D02*
X162833333Y-101952380D01*
X162404761Y-102952380D01*
%TO.C,D6*%
X161261904Y-93162380D02*
X161261904Y-92162380D01*
X161500000Y-92162380D01*
X161642857Y-92210000D01*
X161738095Y-92305238D01*
X161785714Y-92400476D01*
X161833333Y-92590952D01*
X161833333Y-92733809D01*
X161785714Y-92924285D01*
X161738095Y-93019523D01*
X161642857Y-93114761D01*
X161500000Y-93162380D01*
X161261904Y-93162380D01*
X162690476Y-92162380D02*
X162500000Y-92162380D01*
X162404761Y-92210000D01*
X162357142Y-92257619D01*
X162261904Y-92400476D01*
X162214285Y-92590952D01*
X162214285Y-92971904D01*
X162261904Y-93067142D01*
X162309523Y-93114761D01*
X162404761Y-93162380D01*
X162595238Y-93162380D01*
X162690476Y-93114761D01*
X162738095Y-93067142D01*
X162785714Y-92971904D01*
X162785714Y-92733809D01*
X162738095Y-92638571D01*
X162690476Y-92590952D01*
X162595238Y-92543333D01*
X162404761Y-92543333D01*
X162309523Y-92590952D01*
X162261904Y-92638571D01*
X162214285Y-92733809D01*
%TO.C,D5*%
X152261904Y-93162380D02*
X152261904Y-92162380D01*
X152500000Y-92162380D01*
X152642857Y-92210000D01*
X152738095Y-92305238D01*
X152785714Y-92400476D01*
X152833333Y-92590952D01*
X152833333Y-92733809D01*
X152785714Y-92924285D01*
X152738095Y-93019523D01*
X152642857Y-93114761D01*
X152500000Y-93162380D01*
X152261904Y-93162380D01*
X153738095Y-92162380D02*
X153261904Y-92162380D01*
X153214285Y-92638571D01*
X153261904Y-92590952D01*
X153357142Y-92543333D01*
X153595238Y-92543333D01*
X153690476Y-92590952D01*
X153738095Y-92638571D01*
X153785714Y-92733809D01*
X153785714Y-92971904D01*
X153738095Y-93067142D01*
X153690476Y-93114761D01*
X153595238Y-93162380D01*
X153357142Y-93162380D01*
X153261904Y-93114761D01*
X153214285Y-93067142D01*
%TO.C,D4*%
X143261904Y-93162380D02*
X143261904Y-92162380D01*
X143500000Y-92162380D01*
X143642857Y-92210000D01*
X143738095Y-92305238D01*
X143785714Y-92400476D01*
X143833333Y-92590952D01*
X143833333Y-92733809D01*
X143785714Y-92924285D01*
X143738095Y-93019523D01*
X143642857Y-93114761D01*
X143500000Y-93162380D01*
X143261904Y-93162380D01*
X144690476Y-92495714D02*
X144690476Y-93162380D01*
X144452380Y-92114761D02*
X144214285Y-92829047D01*
X144833333Y-92829047D01*
%TO.C,D3*%
X143261904Y-82952380D02*
X143261904Y-81952380D01*
X143500000Y-81952380D01*
X143642857Y-82000000D01*
X143738095Y-82095238D01*
X143785714Y-82190476D01*
X143833333Y-82380952D01*
X143833333Y-82523809D01*
X143785714Y-82714285D01*
X143738095Y-82809523D01*
X143642857Y-82904761D01*
X143500000Y-82952380D01*
X143261904Y-82952380D01*
X144166666Y-81952380D02*
X144785714Y-81952380D01*
X144452380Y-82333333D01*
X144595238Y-82333333D01*
X144690476Y-82380952D01*
X144738095Y-82428571D01*
X144785714Y-82523809D01*
X144785714Y-82761904D01*
X144738095Y-82857142D01*
X144690476Y-82904761D01*
X144595238Y-82952380D01*
X144309523Y-82952380D01*
X144214285Y-82904761D01*
X144166666Y-82857142D01*
%TO.C,D2*%
X152261904Y-82952380D02*
X152261904Y-81952380D01*
X152500000Y-81952380D01*
X152642857Y-82000000D01*
X152738095Y-82095238D01*
X152785714Y-82190476D01*
X152833333Y-82380952D01*
X152833333Y-82523809D01*
X152785714Y-82714285D01*
X152738095Y-82809523D01*
X152642857Y-82904761D01*
X152500000Y-82952380D01*
X152261904Y-82952380D01*
X153214285Y-82047619D02*
X153261904Y-82000000D01*
X153357142Y-81952380D01*
X153595238Y-81952380D01*
X153690476Y-82000000D01*
X153738095Y-82047619D01*
X153785714Y-82142857D01*
X153785714Y-82238095D01*
X153738095Y-82380952D01*
X153166666Y-82952380D01*
X153785714Y-82952380D01*
%TO.C,D1*%
X161261904Y-82952380D02*
X161261904Y-81952380D01*
X161500000Y-81952380D01*
X161642857Y-82000000D01*
X161738095Y-82095238D01*
X161785714Y-82190476D01*
X161833333Y-82380952D01*
X161833333Y-82523809D01*
X161785714Y-82714285D01*
X161738095Y-82809523D01*
X161642857Y-82904761D01*
X161500000Y-82952380D01*
X161261904Y-82952380D01*
X162785714Y-82952380D02*
X162214285Y-82952380D01*
X162500000Y-82952380D02*
X162500000Y-81952380D01*
X162404761Y-82095238D01*
X162309523Y-82190476D01*
X162214285Y-82238095D01*
%TD*%
M02*
