%TF.GenerationSoftware,KiCad,Pcbnew,(5.1.12-1-10_14)*%
%TF.CreationDate,2022-01-26T17:57:44+01:00*%
%TF.ProjectId,tiny-led-esp32,74696e79-2d6c-4656-942d-65737033322e,rev?*%
%TF.SameCoordinates,Original*%
%TF.FileFunction,Legend,Bot*%
%TF.FilePolarity,Positive*%
%FSLAX46Y46*%
G04 Gerber Fmt 4.6, Leading zero omitted, Abs format (unit mm)*
G04 Created by KiCad (PCBNEW (5.1.12-1-10_14)) date 2022-01-26 17:57:44*
%MOMM*%
%LPD*%
G01*
G04 APERTURE LIST*
%ADD10C,0.150000*%
%ADD11C,0.100000*%
%ADD12C,0.120000*%
G04 APERTURE END LIST*
D10*
X157463547Y-78954380D02*
X157463547Y-79668666D01*
X157511166Y-79811523D01*
X157606404Y-79906761D01*
X157749261Y-79954380D01*
X157844500Y-79954380D01*
X156511166Y-79954380D02*
X156987357Y-79954380D01*
X156987357Y-78954380D01*
X155606404Y-79859142D02*
X155654023Y-79906761D01*
X155796880Y-79954380D01*
X155892119Y-79954380D01*
X156034976Y-79906761D01*
X156130214Y-79811523D01*
X156177833Y-79716285D01*
X156225452Y-79525809D01*
X156225452Y-79382952D01*
X156177833Y-79192476D01*
X156130214Y-79097238D01*
X156034976Y-79002000D01*
X155892119Y-78954380D01*
X155796880Y-78954380D01*
X155654023Y-79002000D01*
X155606404Y-79049619D01*
X154892119Y-78954380D02*
X154892119Y-79668666D01*
X154939738Y-79811523D01*
X155034976Y-79906761D01*
X155177833Y-79954380D01*
X155273071Y-79954380D01*
X153939738Y-79954380D02*
X154415928Y-79954380D01*
X154415928Y-78954380D01*
X153034976Y-79859142D02*
X153082595Y-79906761D01*
X153225452Y-79954380D01*
X153320690Y-79954380D01*
X153463547Y-79906761D01*
X153558785Y-79811523D01*
X153606404Y-79716285D01*
X153654023Y-79525809D01*
X153654023Y-79382952D01*
X153606404Y-79192476D01*
X153558785Y-79097238D01*
X153463547Y-79002000D01*
X153320690Y-78954380D01*
X153225452Y-78954380D01*
X153082595Y-79002000D01*
X153034976Y-79049619D01*
X152320690Y-78954380D02*
X152320690Y-79668666D01*
X152368309Y-79811523D01*
X152463547Y-79906761D01*
X152606404Y-79954380D01*
X152701642Y-79954380D01*
X151368309Y-79954380D02*
X151844500Y-79954380D01*
X151844500Y-78954380D01*
X150463547Y-79859142D02*
X150511166Y-79906761D01*
X150654023Y-79954380D01*
X150749261Y-79954380D01*
X150892119Y-79906761D01*
X150987357Y-79811523D01*
X151034976Y-79716285D01*
X151082595Y-79525809D01*
X151082595Y-79382952D01*
X151034976Y-79192476D01*
X150987357Y-79097238D01*
X150892119Y-79002000D01*
X150749261Y-78954380D01*
X150654023Y-78954380D01*
X150511166Y-79002000D01*
X150463547Y-79049619D01*
X149749261Y-78954380D02*
X149749261Y-79668666D01*
X149796880Y-79811523D01*
X149892119Y-79906761D01*
X150034976Y-79954380D01*
X150130214Y-79954380D01*
X148796880Y-79954380D02*
X149273071Y-79954380D01*
X149273071Y-78954380D01*
X147892119Y-79859142D02*
X147939738Y-79906761D01*
X148082595Y-79954380D01*
X148177833Y-79954380D01*
X148320690Y-79906761D01*
X148415928Y-79811523D01*
X148463547Y-79716285D01*
X148511166Y-79525809D01*
X148511166Y-79382952D01*
X148463547Y-79192476D01*
X148415928Y-79097238D01*
X148320690Y-79002000D01*
X148177833Y-78954380D01*
X148082595Y-78954380D01*
X147939738Y-79002000D01*
X147892119Y-79049619D01*
X164124214Y-101729166D02*
X164933738Y-101729166D01*
X165028976Y-101681547D01*
X165076595Y-101633928D01*
X165124214Y-101538690D01*
X165124214Y-101395833D01*
X165076595Y-101300595D01*
X164743261Y-101729166D02*
X164790880Y-101633928D01*
X164790880Y-101443452D01*
X164743261Y-101348214D01*
X164695642Y-101300595D01*
X164600404Y-101252976D01*
X164314690Y-101252976D01*
X164219452Y-101300595D01*
X164171833Y-101348214D01*
X164124214Y-101443452D01*
X164124214Y-101633928D01*
X164171833Y-101729166D01*
X164790880Y-102205357D02*
X164124214Y-102205357D01*
X163790880Y-102205357D02*
X163838500Y-102157738D01*
X163886119Y-102205357D01*
X163838500Y-102252976D01*
X163790880Y-102205357D01*
X163886119Y-102205357D01*
X164124214Y-102538690D02*
X164124214Y-102919642D01*
X163790880Y-102681547D02*
X164648023Y-102681547D01*
X164743261Y-102729166D01*
X164790880Y-102824404D01*
X164790880Y-102919642D01*
X164790880Y-103252976D02*
X163790880Y-103252976D01*
X164790880Y-103681547D02*
X164267071Y-103681547D01*
X164171833Y-103633928D01*
X164124214Y-103538690D01*
X164124214Y-103395833D01*
X164171833Y-103300595D01*
X164219452Y-103252976D01*
X164124214Y-104586309D02*
X164790880Y-104586309D01*
X164124214Y-104157738D02*
X164648023Y-104157738D01*
X164743261Y-104205357D01*
X164790880Y-104300595D01*
X164790880Y-104443452D01*
X164743261Y-104538690D01*
X164695642Y-104586309D01*
X164790880Y-105062500D02*
X163790880Y-105062500D01*
X164171833Y-105062500D02*
X164124214Y-105157738D01*
X164124214Y-105348214D01*
X164171833Y-105443452D01*
X164219452Y-105491071D01*
X164314690Y-105538690D01*
X164600404Y-105538690D01*
X164695642Y-105491071D01*
X164743261Y-105443452D01*
X164790880Y-105348214D01*
X164790880Y-105157738D01*
X164743261Y-105062500D01*
X164695642Y-105967261D02*
X164743261Y-106014880D01*
X164790880Y-105967261D01*
X164743261Y-105919642D01*
X164695642Y-105967261D01*
X164790880Y-105967261D01*
X164743261Y-106872023D02*
X164790880Y-106776785D01*
X164790880Y-106586309D01*
X164743261Y-106491071D01*
X164695642Y-106443452D01*
X164600404Y-106395833D01*
X164314690Y-106395833D01*
X164219452Y-106443452D01*
X164171833Y-106491071D01*
X164124214Y-106586309D01*
X164124214Y-106776785D01*
X164171833Y-106872023D01*
X164790880Y-107443452D02*
X164743261Y-107348214D01*
X164695642Y-107300595D01*
X164600404Y-107252976D01*
X164314690Y-107252976D01*
X164219452Y-107300595D01*
X164171833Y-107348214D01*
X164124214Y-107443452D01*
X164124214Y-107586309D01*
X164171833Y-107681547D01*
X164219452Y-107729166D01*
X164314690Y-107776785D01*
X164600404Y-107776785D01*
X164695642Y-107729166D01*
X164743261Y-107681547D01*
X164790880Y-107586309D01*
X164790880Y-107443452D01*
X164790880Y-108205357D02*
X164124214Y-108205357D01*
X164219452Y-108205357D02*
X164171833Y-108252976D01*
X164124214Y-108348214D01*
X164124214Y-108491071D01*
X164171833Y-108586309D01*
X164267071Y-108633928D01*
X164790880Y-108633928D01*
X164267071Y-108633928D02*
X164171833Y-108681547D01*
X164124214Y-108776785D01*
X164124214Y-108919642D01*
X164171833Y-109014880D01*
X164267071Y-109062500D01*
X164790880Y-109062500D01*
X164695642Y-109538690D02*
X164743261Y-109586309D01*
X164790880Y-109538690D01*
X164743261Y-109491071D01*
X164695642Y-109538690D01*
X164790880Y-109538690D01*
X164171833Y-109538690D02*
X164219452Y-109586309D01*
X164267071Y-109538690D01*
X164219452Y-109491071D01*
X164171833Y-109538690D01*
X164267071Y-109538690D01*
X166440880Y-101300595D02*
X165440880Y-101300595D01*
X165821833Y-101300595D02*
X165774214Y-101395833D01*
X165774214Y-101586309D01*
X165821833Y-101681547D01*
X165869452Y-101729166D01*
X165964690Y-101776785D01*
X166250404Y-101776785D01*
X166345642Y-101729166D01*
X166393261Y-101681547D01*
X166440880Y-101586309D01*
X166440880Y-101395833D01*
X166393261Y-101300595D01*
X166440880Y-102205357D02*
X165774214Y-102205357D01*
X165964690Y-102205357D02*
X165869452Y-102252976D01*
X165821833Y-102300595D01*
X165774214Y-102395833D01*
X165774214Y-102491071D01*
X165774214Y-103252976D02*
X166440880Y-103252976D01*
X165774214Y-102824404D02*
X166298023Y-102824404D01*
X166393261Y-102872023D01*
X166440880Y-102967261D01*
X166440880Y-103110119D01*
X166393261Y-103205357D01*
X166345642Y-103252976D01*
X166393261Y-103681547D02*
X166440880Y-103776785D01*
X166440880Y-103967261D01*
X166393261Y-104062500D01*
X166298023Y-104110119D01*
X166250404Y-104110119D01*
X166155166Y-104062500D01*
X166107547Y-103967261D01*
X166107547Y-103824404D01*
X166059928Y-103729166D01*
X165964690Y-103681547D01*
X165917071Y-103681547D01*
X165821833Y-103729166D01*
X165774214Y-103824404D01*
X165774214Y-103967261D01*
X165821833Y-104062500D01*
X166440880Y-104538690D02*
X165440880Y-104538690D01*
X166440880Y-104967261D02*
X165917071Y-104967261D01*
X165821833Y-104919642D01*
X165774214Y-104824404D01*
X165774214Y-104681547D01*
X165821833Y-104586309D01*
X165869452Y-104538690D01*
X166440880Y-105443452D02*
X165440880Y-105443452D01*
X166059928Y-105538690D02*
X166440880Y-105824404D01*
X165774214Y-105824404D02*
X166155166Y-105443452D01*
X165774214Y-106252976D02*
X166440880Y-106252976D01*
X165869452Y-106252976D02*
X165821833Y-106300595D01*
X165774214Y-106395833D01*
X165774214Y-106538690D01*
X165821833Y-106633928D01*
X165917071Y-106681547D01*
X166440880Y-106681547D01*
X166440880Y-107157738D02*
X165774214Y-107157738D01*
X165440880Y-107157738D02*
X165488500Y-107110119D01*
X165536119Y-107157738D01*
X165488500Y-107205357D01*
X165440880Y-107157738D01*
X165536119Y-107157738D01*
X165774214Y-108062500D02*
X166583738Y-108062500D01*
X166678976Y-108014880D01*
X166726595Y-107967261D01*
X166774214Y-107872023D01*
X166774214Y-107729166D01*
X166726595Y-107633928D01*
X166393261Y-108062500D02*
X166440880Y-107967261D01*
X166440880Y-107776785D01*
X166393261Y-107681547D01*
X166345642Y-107633928D01*
X166250404Y-107586309D01*
X165964690Y-107586309D01*
X165869452Y-107633928D01*
X165821833Y-107681547D01*
X165774214Y-107776785D01*
X165774214Y-107967261D01*
X165821833Y-108062500D01*
X166440880Y-108538690D02*
X165440880Y-108538690D01*
X166440880Y-108967261D02*
X165917071Y-108967261D01*
X165821833Y-108919642D01*
X165774214Y-108824404D01*
X165774214Y-108681547D01*
X165821833Y-108586309D01*
X165869452Y-108538690D01*
X165774214Y-109300595D02*
X165774214Y-109681547D01*
X165440880Y-109443452D02*
X166298023Y-109443452D01*
X166393261Y-109491071D01*
X166440880Y-109586309D01*
X166440880Y-109681547D01*
X165393261Y-110729166D02*
X166678976Y-109872023D01*
X165774214Y-110919642D02*
X165774214Y-111300595D01*
X165440880Y-111062500D02*
X166298023Y-111062500D01*
X166393261Y-111110119D01*
X166440880Y-111205357D01*
X166440880Y-111300595D01*
X166440880Y-111633928D02*
X165774214Y-111633928D01*
X165440880Y-111633928D02*
X165488500Y-111586309D01*
X165536119Y-111633928D01*
X165488500Y-111681547D01*
X165440880Y-111633928D01*
X165536119Y-111633928D01*
X165774214Y-112110119D02*
X166440880Y-112110119D01*
X165869452Y-112110119D02*
X165821833Y-112157738D01*
X165774214Y-112252976D01*
X165774214Y-112395833D01*
X165821833Y-112491071D01*
X165917071Y-112538690D01*
X166440880Y-112538690D01*
X165774214Y-112919642D02*
X166440880Y-113157738D01*
X165774214Y-113395833D02*
X166440880Y-113157738D01*
X166678976Y-113062500D01*
X166726595Y-113014880D01*
X166774214Y-112919642D01*
X166059928Y-113776785D02*
X166059928Y-114538690D01*
X166440880Y-115157738D02*
X166393261Y-115062500D01*
X166298023Y-115014880D01*
X165440880Y-115014880D01*
X166393261Y-115919642D02*
X166440880Y-115824404D01*
X166440880Y-115633928D01*
X166393261Y-115538690D01*
X166298023Y-115491071D01*
X165917071Y-115491071D01*
X165821833Y-115538690D01*
X165774214Y-115633928D01*
X165774214Y-115824404D01*
X165821833Y-115919642D01*
X165917071Y-115967261D01*
X166012309Y-115967261D01*
X166107547Y-115491071D01*
X166440880Y-116824404D02*
X165440880Y-116824404D01*
X166393261Y-116824404D02*
X166440880Y-116729166D01*
X166440880Y-116538690D01*
X166393261Y-116443452D01*
X166345642Y-116395833D01*
X166250404Y-116348214D01*
X165964690Y-116348214D01*
X165869452Y-116395833D01*
X165821833Y-116443452D01*
X165774214Y-116538690D01*
X165774214Y-116729166D01*
X165821833Y-116824404D01*
X166059928Y-117300595D02*
X166059928Y-118062500D01*
X166393261Y-118919642D02*
X166440880Y-118824404D01*
X166440880Y-118633928D01*
X166393261Y-118538690D01*
X166298023Y-118491071D01*
X165917071Y-118491071D01*
X165821833Y-118538690D01*
X165774214Y-118633928D01*
X165774214Y-118824404D01*
X165821833Y-118919642D01*
X165917071Y-118967261D01*
X166012309Y-118967261D01*
X166107547Y-118491071D01*
X166393261Y-119348214D02*
X166440880Y-119443452D01*
X166440880Y-119633928D01*
X166393261Y-119729166D01*
X166298023Y-119776785D01*
X166250404Y-119776785D01*
X166155166Y-119729166D01*
X166107547Y-119633928D01*
X166107547Y-119491071D01*
X166059928Y-119395833D01*
X165964690Y-119348214D01*
X165917071Y-119348214D01*
X165821833Y-119395833D01*
X165774214Y-119491071D01*
X165774214Y-119633928D01*
X165821833Y-119729166D01*
X165774214Y-120205357D02*
X166774214Y-120205357D01*
X165821833Y-120205357D02*
X165774214Y-120300595D01*
X165774214Y-120491071D01*
X165821833Y-120586309D01*
X165869452Y-120633928D01*
X165964690Y-120681547D01*
X166250404Y-120681547D01*
X166345642Y-120633928D01*
X166393261Y-120586309D01*
X166440880Y-120491071D01*
X166440880Y-120300595D01*
X166393261Y-120205357D01*
X165440880Y-121014880D02*
X165440880Y-121633928D01*
X165821833Y-121300595D01*
X165821833Y-121443452D01*
X165869452Y-121538690D01*
X165917071Y-121586309D01*
X166012309Y-121633928D01*
X166250404Y-121633928D01*
X166345642Y-121586309D01*
X166393261Y-121538690D01*
X166440880Y-121443452D01*
X166440880Y-121157738D01*
X166393261Y-121062500D01*
X166345642Y-121014880D01*
X165536119Y-122014880D02*
X165488500Y-122062500D01*
X165440880Y-122157738D01*
X165440880Y-122395833D01*
X165488500Y-122491071D01*
X165536119Y-122538690D01*
X165631357Y-122586309D01*
X165726595Y-122586309D01*
X165869452Y-122538690D01*
X166440880Y-121967261D01*
X166440880Y-122586309D01*
D11*
X166033500Y-98386976D02*
X165995404Y-98310785D01*
X165995404Y-98196500D01*
X166033500Y-98082214D01*
X166109690Y-98006023D01*
X166185880Y-97967928D01*
X166338261Y-97929833D01*
X166452547Y-97929833D01*
X166604928Y-97967928D01*
X166681119Y-98006023D01*
X166757309Y-98082214D01*
X166795404Y-98196500D01*
X166795404Y-98272690D01*
X166757309Y-98386976D01*
X166719214Y-98425071D01*
X166452547Y-98425071D01*
X166452547Y-98272690D01*
X166795404Y-98767928D02*
X165995404Y-98767928D01*
X166795404Y-99225071D01*
X165995404Y-99225071D01*
X166795404Y-99606023D02*
X165995404Y-99606023D01*
X165995404Y-99796500D01*
X166033500Y-99910785D01*
X166109690Y-99986976D01*
X166185880Y-100025071D01*
X166338261Y-100063166D01*
X166452547Y-100063166D01*
X166604928Y-100025071D01*
X166681119Y-99986976D01*
X166757309Y-99910785D01*
X166795404Y-99796500D01*
X166795404Y-99606023D01*
X141770000Y-89452404D02*
X141770000Y-88652404D01*
X141236666Y-88652404D02*
X141084285Y-88652404D01*
X141008095Y-88690500D01*
X140931904Y-88766690D01*
X140893809Y-88919071D01*
X140893809Y-89185738D01*
X140931904Y-89338119D01*
X141008095Y-89414309D01*
X141084285Y-89452404D01*
X141236666Y-89452404D01*
X141312857Y-89414309D01*
X141389047Y-89338119D01*
X141427142Y-89185738D01*
X141427142Y-88919071D01*
X141389047Y-88766690D01*
X141312857Y-88690500D01*
X141236666Y-88652404D01*
X140398571Y-88652404D02*
X140322380Y-88652404D01*
X140246190Y-88690500D01*
X140208095Y-88728595D01*
X140170000Y-88804785D01*
X140131904Y-88957166D01*
X140131904Y-89147642D01*
X140170000Y-89300023D01*
X140208095Y-89376214D01*
X140246190Y-89414309D01*
X140322380Y-89452404D01*
X140398571Y-89452404D01*
X140474761Y-89414309D01*
X140512857Y-89376214D01*
X140550952Y-89300023D01*
X140589047Y-89147642D01*
X140589047Y-88957166D01*
X140550952Y-88804785D01*
X140512857Y-88728595D01*
X140474761Y-88690500D01*
X140398571Y-88652404D01*
X166376357Y-94278523D02*
X166376357Y-94545190D01*
X166795404Y-94659476D02*
X166795404Y-94278523D01*
X165995404Y-94278523D01*
X165995404Y-94659476D01*
X166795404Y-95002333D02*
X165995404Y-95002333D01*
X166795404Y-95459476D01*
X165995404Y-95459476D01*
X141579523Y-92716404D02*
X141122380Y-92716404D01*
X141350952Y-93516404D02*
X141350952Y-92716404D01*
X140931904Y-92716404D02*
X140398571Y-93516404D01*
X140398571Y-92716404D02*
X140931904Y-93516404D01*
X141166833Y-97453404D02*
X141433500Y-97072452D01*
X141623976Y-97453404D02*
X141623976Y-96653404D01*
X141319214Y-96653404D01*
X141243023Y-96691500D01*
X141204928Y-96729595D01*
X141166833Y-96805785D01*
X141166833Y-96920071D01*
X141204928Y-96996261D01*
X141243023Y-97034357D01*
X141319214Y-97072452D01*
X141623976Y-97072452D01*
X140900166Y-96653404D02*
X140366833Y-97453404D01*
X140366833Y-96653404D02*
X140900166Y-97453404D01*
X141985880Y-100590404D02*
X141490642Y-100590404D01*
X141757309Y-100895166D01*
X141643023Y-100895166D01*
X141566833Y-100933261D01*
X141528738Y-100971357D01*
X141490642Y-101047547D01*
X141490642Y-101238023D01*
X141528738Y-101314214D01*
X141566833Y-101352309D01*
X141643023Y-101390404D01*
X141871595Y-101390404D01*
X141947785Y-101352309D01*
X141985880Y-101314214D01*
X141223976Y-100857071D02*
X141033500Y-101390404D01*
X140843023Y-100857071D01*
X140614452Y-100590404D02*
X140119214Y-100590404D01*
X140385880Y-100895166D01*
X140271595Y-100895166D01*
X140195404Y-100933261D01*
X140157309Y-100971357D01*
X140119214Y-101047547D01*
X140119214Y-101238023D01*
X140157309Y-101314214D01*
X140195404Y-101352309D01*
X140271595Y-101390404D01*
X140500166Y-101390404D01*
X140576357Y-101352309D01*
X140614452Y-101314214D01*
X141643023Y-104629000D02*
X141719214Y-104590904D01*
X141833500Y-104590904D01*
X141947785Y-104629000D01*
X142023976Y-104705190D01*
X142062071Y-104781380D01*
X142100166Y-104933761D01*
X142100166Y-105048047D01*
X142062071Y-105200428D01*
X142023976Y-105276619D01*
X141947785Y-105352809D01*
X141833500Y-105390904D01*
X141757309Y-105390904D01*
X141643023Y-105352809D01*
X141604928Y-105314714D01*
X141604928Y-105048047D01*
X141757309Y-105048047D01*
X141262071Y-105390904D02*
X141262071Y-104590904D01*
X140804928Y-105390904D01*
X140804928Y-104590904D01*
X140423976Y-105390904D02*
X140423976Y-104590904D01*
X140233500Y-104590904D01*
X140119214Y-104629000D01*
X140043023Y-104705190D01*
X140004928Y-104781380D01*
X139966833Y-104933761D01*
X139966833Y-105048047D01*
X140004928Y-105200428D01*
X140043023Y-105276619D01*
X140119214Y-105352809D01*
X140233500Y-105390904D01*
X140423976Y-105390904D01*
D12*
%TO.C,U2*%
X162120000Y-101873500D02*
X162120000Y-102653500D01*
X162120000Y-102653500D02*
X161120000Y-102653500D01*
X143880000Y-101873500D02*
X143880000Y-102653500D01*
X143880000Y-102653500D02*
X144880000Y-102653500D01*
%TO.C,R3*%
X165375000Y-86727064D02*
X165375000Y-85272936D01*
X163555000Y-86727064D02*
X163555000Y-85272936D01*
%TO.C,R2*%
X140187000Y-85272936D02*
X140187000Y-86727064D01*
X142007000Y-85272936D02*
X142007000Y-86727064D01*
%TO.C,C14*%
X152338248Y-116670500D02*
X153760752Y-116670500D01*
X152338248Y-114850500D02*
X153760752Y-114850500D01*
%TO.C,C1*%
X163555000Y-90552748D02*
X163555000Y-91975252D01*
X165375000Y-90552748D02*
X165375000Y-91975252D01*
%TO.C,U1*%
X149625000Y-107793000D02*
X150885000Y-107793000D01*
X156445000Y-107793000D02*
X155185000Y-107793000D01*
X149625000Y-111553000D02*
X149625000Y-107793000D01*
X156445000Y-113803000D02*
X156445000Y-107793000D01*
D10*
%TO.C,J1*%
X157185000Y-124635500D02*
X157185000Y-126035500D01*
X157185000Y-128435500D02*
X157185000Y-128585500D01*
X157185000Y-128585500D02*
X156885000Y-128585500D01*
X156885000Y-128585500D02*
X156885000Y-129035500D01*
X149185000Y-129035500D02*
X149185000Y-128585500D01*
X149185000Y-128585500D02*
X148885000Y-128585500D01*
X148885000Y-128585500D02*
X148885000Y-128435500D01*
X148885000Y-126035500D02*
X148885000Y-124635500D01*
X154110000Y-122460500D02*
X154835000Y-122460500D01*
X154835000Y-122460500D02*
X154835000Y-122885500D01*
X154835000Y-122885500D02*
X155835000Y-122885500D01*
X151235000Y-122885500D02*
X150235000Y-122885500D01*
%TO.C,U2*%
X148653404Y-99274380D02*
X148653404Y-100083904D01*
X148605785Y-100179142D01*
X148558166Y-100226761D01*
X148462928Y-100274380D01*
X148272452Y-100274380D01*
X148177214Y-100226761D01*
X148129595Y-100179142D01*
X148081976Y-100083904D01*
X148081976Y-99274380D01*
X147653404Y-99369619D02*
X147605785Y-99322000D01*
X147510547Y-99274380D01*
X147272452Y-99274380D01*
X147177214Y-99322000D01*
X147129595Y-99369619D01*
X147081976Y-99464857D01*
X147081976Y-99560095D01*
X147129595Y-99702952D01*
X147701023Y-100274380D01*
X147081976Y-100274380D01*
%TO.C,H2*%
X163766476Y-120864380D02*
X164242666Y-120864380D01*
X164290285Y-121340571D01*
X164242666Y-121292952D01*
X164147428Y-121245333D01*
X163909333Y-121245333D01*
X163814095Y-121292952D01*
X163766476Y-121340571D01*
X163718857Y-121435809D01*
X163718857Y-121673904D01*
X163766476Y-121769142D01*
X163814095Y-121816761D01*
X163909333Y-121864380D01*
X164147428Y-121864380D01*
X164242666Y-121816761D01*
X164290285Y-121769142D01*
X163433142Y-120864380D02*
X163099809Y-121864380D01*
X162766476Y-120864380D01*
%TO.C,H1*%
X142493904Y-120912000D02*
X142589142Y-120864380D01*
X142732000Y-120864380D01*
X142874857Y-120912000D01*
X142970095Y-121007238D01*
X143017714Y-121102476D01*
X143065333Y-121292952D01*
X143065333Y-121435809D01*
X143017714Y-121626285D01*
X142970095Y-121721523D01*
X142874857Y-121816761D01*
X142732000Y-121864380D01*
X142636761Y-121864380D01*
X142493904Y-121816761D01*
X142446285Y-121769142D01*
X142446285Y-121435809D01*
X142636761Y-121435809D01*
X142017714Y-121864380D02*
X142017714Y-120864380D01*
X141446285Y-121864380D01*
X141446285Y-120864380D01*
X140970095Y-121864380D02*
X140970095Y-120864380D01*
X140732000Y-120864380D01*
X140589142Y-120912000D01*
X140493904Y-121007238D01*
X140446285Y-121102476D01*
X140398666Y-121292952D01*
X140398666Y-121435809D01*
X140446285Y-121626285D01*
X140493904Y-121721523D01*
X140589142Y-121816761D01*
X140732000Y-121864380D01*
X140970095Y-121864380D01*
%TO.C,R3*%
X164631666Y-86390880D02*
X164965000Y-85914690D01*
X165203095Y-86390880D02*
X165203095Y-85390880D01*
X164822142Y-85390880D01*
X164726904Y-85438500D01*
X164679285Y-85486119D01*
X164631666Y-85581357D01*
X164631666Y-85724214D01*
X164679285Y-85819452D01*
X164726904Y-85867071D01*
X164822142Y-85914690D01*
X165203095Y-85914690D01*
X164298333Y-85390880D02*
X163679285Y-85390880D01*
X164012619Y-85771833D01*
X163869761Y-85771833D01*
X163774523Y-85819452D01*
X163726904Y-85867071D01*
X163679285Y-85962309D01*
X163679285Y-86200404D01*
X163726904Y-86295642D01*
X163774523Y-86343261D01*
X163869761Y-86390880D01*
X164155476Y-86390880D01*
X164250714Y-86343261D01*
X164298333Y-86295642D01*
%TO.C,R2*%
X141327166Y-86515880D02*
X141660500Y-86039690D01*
X141898595Y-86515880D02*
X141898595Y-85515880D01*
X141517642Y-85515880D01*
X141422404Y-85563500D01*
X141374785Y-85611119D01*
X141327166Y-85706357D01*
X141327166Y-85849214D01*
X141374785Y-85944452D01*
X141422404Y-85992071D01*
X141517642Y-86039690D01*
X141898595Y-86039690D01*
X140946214Y-85611119D02*
X140898595Y-85563500D01*
X140803357Y-85515880D01*
X140565261Y-85515880D01*
X140470023Y-85563500D01*
X140422404Y-85611119D01*
X140374785Y-85706357D01*
X140374785Y-85801595D01*
X140422404Y-85944452D01*
X140993833Y-86515880D01*
X140374785Y-86515880D01*
%TO.C,C14*%
X153692357Y-117967642D02*
X153739976Y-118015261D01*
X153882833Y-118062880D01*
X153978071Y-118062880D01*
X154120928Y-118015261D01*
X154216166Y-117920023D01*
X154263785Y-117824785D01*
X154311404Y-117634309D01*
X154311404Y-117491452D01*
X154263785Y-117300976D01*
X154216166Y-117205738D01*
X154120928Y-117110500D01*
X153978071Y-117062880D01*
X153882833Y-117062880D01*
X153739976Y-117110500D01*
X153692357Y-117158119D01*
X152739976Y-118062880D02*
X153311404Y-118062880D01*
X153025690Y-118062880D02*
X153025690Y-117062880D01*
X153120928Y-117205738D01*
X153216166Y-117300976D01*
X153311404Y-117348595D01*
X151882833Y-117396214D02*
X151882833Y-118062880D01*
X152120928Y-117015261D02*
X152359023Y-117729547D01*
X151739976Y-117729547D01*
%TO.C,C1*%
X164568166Y-91572142D02*
X164615785Y-91619761D01*
X164758642Y-91667380D01*
X164853880Y-91667380D01*
X164996738Y-91619761D01*
X165091976Y-91524523D01*
X165139595Y-91429285D01*
X165187214Y-91238809D01*
X165187214Y-91095952D01*
X165139595Y-90905476D01*
X165091976Y-90810238D01*
X164996738Y-90715000D01*
X164853880Y-90667380D01*
X164758642Y-90667380D01*
X164615785Y-90715000D01*
X164568166Y-90762619D01*
X163615785Y-91667380D02*
X164187214Y-91667380D01*
X163901500Y-91667380D02*
X163901500Y-90667380D01*
X163996738Y-90810238D01*
X164091976Y-90905476D01*
X164187214Y-90953095D01*
%TO.C,U1*%
X153669904Y-109434380D02*
X153669904Y-110243904D01*
X153622285Y-110339142D01*
X153574666Y-110386761D01*
X153479428Y-110434380D01*
X153288952Y-110434380D01*
X153193714Y-110386761D01*
X153146095Y-110339142D01*
X153098476Y-110243904D01*
X153098476Y-109434380D01*
X152098476Y-110434380D02*
X152669904Y-110434380D01*
X152384190Y-110434380D02*
X152384190Y-109434380D01*
X152479428Y-109577238D01*
X152574666Y-109672476D01*
X152669904Y-109720095D01*
%TO.C,J1*%
X153368333Y-121237880D02*
X153368333Y-121952166D01*
X153415952Y-122095023D01*
X153511190Y-122190261D01*
X153654047Y-122237880D01*
X153749285Y-122237880D01*
X152368333Y-122237880D02*
X152939761Y-122237880D01*
X152654047Y-122237880D02*
X152654047Y-121237880D01*
X152749285Y-121380738D01*
X152844523Y-121475976D01*
X152939761Y-121523595D01*
%TD*%
M02*
